<?xml version="1.0" encoding="UTF-8" standalone="no"?>
<svg width="106px" height="101px" viewBox="0 0 106 101" version="1.1" xmlns="http://www.w3.org/2000/svg" xmlns:xlink="http://www.w3.org/1999/xlink">
    <!-- Generator: Sketch 40.3 (33839) - http://www.bohemiancoding.com/sketch -->
    <title>Group 5</title>
    <desc>Created with Sketch.</desc>
    <defs></defs>
    <g id="Page-1" stroke="none" stroke-width="1" fill="none" fill-rule="evenodd">
        <g id="Flowci-Home" transform="translate(-505.000000, -2368.000000)">
            <g id="Group-5" transform="translate(505.000000, 2368.000000)">
                <path d="M51.7236328,91.5449219 C21.6455078,91.5449219 4.296875,82.1455078 4.13574219,82.0917969 L0,89.6113281 C0.751953125,90.0410156 19.2285156,100.03125 51.7236328,100.03125 C84.21875,100.03125 102.695312,90.0410156 103.500977,89.6113281 L99.3652344,82.0917969 C99.1503906,82.1455078 81.8017578,91.5449219 51.7236328,91.5449219 L51.7236328,91.5449219 Z M20.3027344,61.1982422 C26.6943359,81.984375 40.5517578,84.5625 51.8847656,84.5625 C63.0566406,84.5625 76.5917969,82.0917969 83.1445312,62.21875 L89.2138672,62.21875 C98.3984375,62.21875 105.058594,56.0957031 105.058594,47.609375 C105.058594,39.1230469 98.3984375,33 89.2138672,33 L15.6835938,33 L16.0595703,37.6728516 C16.1132812,38.2099609 17.2412109,51.2080078 20.3027344,61.1982422 L20.3027344,61.1982422 Z M87.2802734,41.59375 L89.2138672,41.59375 C92.5439453,41.59375 96.4648438,43.1513672 96.4648438,47.609375 C96.4648438,52.0673828 92.5439453,53.625 89.2138672,53.625 L85.4003906,53.625 C86.3134766,49.0595703 86.9580078,44.6015625 87.2802734,41.59375 L87.2802734,41.59375 Z M78.6865234,41.59375 C78.0957031,46.0517578 77.0214844,53.0341797 75.3027344,58.6201172 C70.8447266,73.1757812 63.0566406,76.0761719 51.8847656,76.0761719 C40.7666016,76.0761719 32.9248047,73.1757812 28.4667969,58.6201172 C26.7480469,53.0341797 25.6738281,46.0517578 25.1367188,41.59375 L78.6865234,41.59375 Z" id="coffee" fill="#53575C"></path>
                <g id="Group-4" transform="translate(38.000000, 0.000000)" fill="#556AF9">
                    <path d="M20.4266077,25.78125 L29.0203577,25.78125 C17.1502405,17.1875 40.8904749,8.59375 29.0203577,0 L20.4266077,0 C32.2967249,8.59375 8.55649049,17.1875 20.4266077,25.78125 L20.4266077,25.78125 Z" id="Path"></path>
                    <path d="M12.0203577,25.78125 C0.150240489,17.1875 23.8904749,8.59375 12.0203577,0 L3.42660768,0 C15.2967249,8.59375 -8.44350951,17.1875 3.42660768,25.78125 L12.0203577,25.78125 Z" id="Path"></path>
                </g>
            </g>
        </g>
    </g>
</svg>