<?xml version="1.0" encoding="UTF-8" standalone="no"?>
<svg width="73px" height="20px" viewBox="0 0 73 20" version="1.1" xmlns="http://www.w3.org/2000/svg" xmlns:xlink="http://www.w3.org/1999/xlink">
    <!-- Generator: Sketch 46.2 (44496) - http://www.bohemiancoding.com/sketch -->
    <title>flow.ci copy</title>
    <desc>Created with Sketch.</desc>
    <defs></defs>
    <g id="Page-1" stroke="none" stroke-width="1" fill="none" fill-rule="evenodd">
        <g id="Flow.ci-LOGO" transform="translate(-312.000000, -248.000000)" fill="#5767D0">
            <path d="M317.772152,248 C318.481016,248 319.067508,248.059071 319.531646,248.177215 C319.995783,248.295359 320.388184,248.42194 320.708861,248.556962 L320.050633,251.518987 C319.780589,251.400843 319.481014,251.316456 319.151899,251.265823 C318.822783,251.21519 318.489453,251.189873 318.151899,251.189873 C317.6962,251.189873 317.312238,251.253164 317,251.379747 C316.687762,251.50633 316.443039,251.679324 316.265823,251.898734 C316.088607,252.118145 315.962026,252.379745 315.886076,252.683544 C315.810126,252.987343 315.772152,253.316454 315.772152,253.670886 L315.772152,254.329114 L320.43038,254.329114 L320.43038,257.468354 L315.772152,257.468354 L315.772152,267.64557 L312,267.64557 L312,253.620253 C312,251.898726 312.485227,250.531651 313.455696,249.518987 C314.426165,248.506324 315.864969,248 317.772152,248 Z M327.949367,267.898734 C326.852315,267.881856 325.962029,267.763714 325.278481,267.544304 C324.594933,267.324893 324.054854,267.01688 323.658228,266.620253 C323.261601,266.223627 322.991562,265.742619 322.848101,265.177215 C322.704641,264.611812 322.632911,263.974687 322.632911,263.265823 L322.632911,248.607595 L326.405063,248 L326.405063,262.506329 C326.405063,262.843884 326.430379,263.147678 326.481013,263.417722 C326.531646,263.687765 326.628691,263.915611 326.772152,264.101266 C326.915613,264.286921 327.122362,264.438818 327.392405,264.556962 C327.662449,264.675106 328.025314,264.751055 328.481013,264.78481 L327.949367,267.898734 Z M342.582279,260.962025 C342.582279,262.008444 342.430381,262.96624 342.126582,263.835443 C341.822783,264.704646 341.383969,265.447254 340.810127,266.063291 C340.236284,266.679328 339.548527,267.156116 338.746836,267.493671 C337.945144,267.831225 337.046419,268 336.050633,268 C335.071725,268 334.181439,267.831225 333.379747,267.493671 C332.578055,267.156116 331.890298,266.679328 331.316456,266.063291 C330.742613,265.447254 330.29536,264.704646 329.974684,263.835443 C329.654007,262.96624 329.493671,262.008444 329.493671,260.962025 C329.493671,259.915607 329.658226,258.96203 329.987342,258.101266 C330.316457,257.240502 330.772149,256.506332 331.35443,255.898734 C331.936712,255.291136 332.628688,254.818567 333.43038,254.481013 C334.232072,254.143458 335.105481,253.974684 336.050633,253.974684 C337.012663,253.974684 337.894511,254.143458 338.696203,254.481013 C339.497894,254.818567 340.185651,255.291136 340.759494,255.898734 C341.333336,256.506332 341.780589,257.240502 342.101266,258.101266 C342.421943,258.96203 342.582279,259.915607 342.582279,260.962025 Z M338.734177,260.962025 C338.734177,259.797463 338.502112,258.88186 338.037975,258.21519 C337.573837,257.54852 336.911397,257.21519 336.050633,257.21519 C335.189869,257.21519 334.523209,257.54852 334.050633,258.21519 C333.578057,258.88186 333.341772,259.797463 333.341772,260.962025 C333.341772,262.126588 333.578057,263.050629 334.050633,263.734177 C334.523209,264.417725 335.189869,264.759494 336.050633,264.759494 C336.911397,264.759494 337.573837,264.417725 338.037975,263.734177 C338.502112,263.050629 338.734177,262.126588 338.734177,260.962025 Z M352.78481,260 C352.447256,261.282707 352.08861,262.556956 351.708861,263.822785 C351.329112,265.088614 350.928272,266.362863 350.506329,267.64557 L347.56962,267.64557 C347.265821,266.936705 346.936711,266.092832 346.582279,265.113924 C346.227847,264.135016 345.860762,263.067516 345.481013,261.911392 C345.101264,260.755268 344.713082,259.531652 344.316456,258.240506 C343.919829,256.949361 343.535867,255.645576 343.164557,254.329114 L347.139241,254.329114 C347.274262,254.936712 347.42194,255.599153 347.582279,256.316456 C347.742617,257.033759 347.911392,257.772148 348.088608,258.531646 C348.265824,259.291143 348.451476,260.054848 348.64557,260.822785 C348.839664,261.590721 349.037974,262.32911 349.240507,263.037975 C349.459917,262.295355 349.675105,261.535869 349.886076,260.759494 C350.097048,259.983118 350.299577,259.219413 350.493671,258.468354 C350.687765,257.717296 350.873417,256.991565 351.050633,256.291139 C351.227849,255.590714 351.383966,254.936712 351.518988,254.329114 L354.253165,254.329114 C354.388187,254.936712 354.540084,255.590714 354.708861,256.291139 C354.877638,256.991565 355.054852,257.717296 355.240507,258.468354 C355.426161,259.219413 355.620252,259.983118 355.822785,260.759494 C356.025318,261.535869 356.236286,262.295355 356.455696,263.037975 C356.658229,262.32911 356.860759,261.590721 357.063291,260.822785 C357.265824,260.054848 357.455696,259.291143 357.632912,258.531646 C357.810128,257.772148 357.978902,257.033759 358.139241,256.316456 C358.299579,255.599153 358.447257,254.936712 358.582279,254.329114 L362.506329,254.329114 C362.135019,255.645576 361.751057,256.949361 361.354431,258.240506 C360.957804,259.531652 360.569622,260.755268 360.189874,261.911392 C359.810125,263.067516 359.438821,264.135016 359.07595,265.113924 C358.713079,266.092832 358.379749,266.936705 358.07595,267.64557 L355.139241,267.64557 C354.717298,266.362863 354.3038,265.088614 353.898734,263.822785 C353.493669,262.556956 353.122365,261.282707 352.78481,260 Z M366.379747,265.64557 C366.379747,266.405067 366.139243,266.98312 365.658228,267.379747 C365.177213,267.776373 364.632915,267.974684 364.025317,267.974684 C363.417719,267.974684 362.87342,267.776373 362.392405,267.379747 C361.91139,266.98312 361.670886,266.405067 361.670886,265.64557 C361.670886,264.886072 361.91139,264.308019 362.392405,263.911392 C362.87342,263.514766 363.417719,263.316456 364.025317,263.316456 C364.632915,263.316456 365.177213,263.514766 365.658228,263.911392 C366.139243,264.308019 366.379747,264.886072 366.379747,265.64557 Z M367.763148,260.987342 C367.763148,260.025312 367.919265,259.118148 368.231503,258.265823 C368.543741,257.413498 368.995213,256.670889 369.585933,256.037975 C370.176653,255.40506 370.893946,254.902955 371.737832,254.531646 C372.581718,254.160336 373.543734,253.974684 374.623908,253.974684 C375.332772,253.974684 375.982555,254.037974 376.573275,254.164557 C377.163995,254.29114 377.737829,254.472573 378.294794,254.708861 L377.509984,257.721519 C377.155552,257.586497 376.76737,257.468355 376.345427,257.367089 C375.923484,257.265822 375.450915,257.21519 374.927705,257.21519 C373.813776,257.21519 372.98256,257.561178 372.434034,258.253165 C371.885508,258.945151 371.61125,259.856534 371.61125,260.987342 C371.61125,262.18566 371.868631,263.113921 372.383401,263.772152 C372.898172,264.430383 373.796897,264.759494 375.079604,264.759494 C375.535302,264.759494 376.024749,264.7173 376.547958,264.632911 C377.071168,264.548523 377.552176,264.413503 377.990996,264.227848 L378.522642,267.316456 C378.083821,267.502111 377.535303,267.662447 376.877072,267.797468 C376.218841,267.93249 375.49311,268 374.699857,268 C373.484661,268 372.438258,267.818567 371.560617,267.455696 C370.682975,267.092825 369.961463,266.599159 369.39606,265.974684 C368.830656,265.350208 368.417158,264.611819 368.155553,263.759494 C367.893949,262.907169 367.763148,261.983127 367.763148,260.987342 Z M384.32011,267.64557 L380.547958,267.64557 L380.547958,254.329114 L384.32011,254.329114 L384.32011,267.64557 Z M384.674541,250.481013 C384.674541,251.172999 384.450914,251.717298 384.003655,252.113924 C383.556395,252.510551 383.028974,252.708861 382.421376,252.708861 C381.813778,252.708861 381.286357,252.510551 380.839098,252.113924 C380.391838,251.717298 380.168212,251.172999 380.168212,250.481013 C380.168212,249.789026 380.391838,249.244728 380.839098,248.848101 C381.286357,248.451475 381.813778,248.253165 382.421376,248.253165 C383.028974,248.253165 383.556395,248.451475 384.003655,248.848101 C384.450914,249.244728 384.674541,249.789026 384.674541,250.481013 Z" id="flow.ci-copy"></path>
        </g>
    </g>
</svg>
