<?xml version="1.0" encoding="UTF-8" standalone="no"?>
<svg width="66px" height="17px" viewBox="0 0 66 17" version="1.1" xmlns="http://www.w3.org/2000/svg" xmlns:xlink="http://www.w3.org/1999/xlink">
    <!-- Generator: Sketch 3.6.1 (26313) - http://www.bohemiancoding.com/sketch -->
    <title>logo-inline-blue</title>
    <desc>Created with Sketch.</desc>
    <defs></defs>
    <g id="Page-1" stroke="none" stroke-width="1" fill="none" fill-rule="evenodd">
        <g id="logo-inline-blue" fill="#556AF8">
            <path d="M2.83680322,6.17391304 L2.83680322,4.69565217 C2.83680322,3.28984804 3.25049956,2.15580141 4.07790463,1.29347826 C4.90530971,0.431155109 5.99865002,0 7.35795836,0 C8.17058835,0 9.04230562,0.123187174 9.97313633,0.369565217 L9.55204835,2.95652174 C8.91671946,2.8260863 8.39221161,2.76086957 7.97850907,2.76086957 C7.35795526,2.76086957 6.85930343,2.93478087 6.48253862,3.2826087 C6.1057738,3.63043652 5.91739422,4.0942 5.91739422,4.67391304 L5.91739422,6.17391304 L9.48556078,6.17391304 L9.48556078,8.7173913 L5.91739422,8.7173913 L5.91739422,16.5869565 L2.83680322,16.5869565 L2.83680322,8.7173913 L0,8.7173913 L0,6.17391304 L2.83680322,6.17391304 L2.83680322,6.17391304 Z M14.3613163,1.15217391 L14.3613163,16.5869565 L11.2807253,16.5869565 L11.2807253,1.15217391 L14.3613163,1.15217391 L14.3613163,1.15217391 Z M22.2511753,5.95652174 C23.8764353,5.95652174 25.224642,6.4673862 26.2958361,7.48913043 C27.3670303,8.51087467 27.9026192,9.8115863 27.9026192,11.3913043 C27.9026192,12.9855152 27.3670303,14.3043426 26.2958361,15.3478261 C25.224642,16.3913096 23.8764353,16.9130435 22.2511753,16.9130435 C20.6111403,16.9130435 19.2518522,16.3913096 18.1732707,15.3478261 C17.0946891,14.3043426 16.5554063,12.9855152 16.5554063,11.3913043 C16.5554063,9.8115863 17.0946891,8.51087467 18.1732707,7.48913043 C19.2518522,6.4673862 20.6111403,5.95652174 22.2511753,5.95652174 L22.2511753,5.95652174 L22.2511753,5.95652174 Z M22.2511753,14.2173913 C23.0342551,14.2173913 23.6658807,13.9456548 24.1460712,13.4021739 C24.6262616,12.8586929 24.8663533,12.1884098 24.8663533,11.3913043 C24.8663533,10.6086917 24.6262616,9.95652431 24.1460712,9.43478261 C23.6658807,8.91304087 23.0342551,8.65217391 22.2511753,8.65217391 C21.4533203,8.65217391 20.8106136,8.91304087 20.3230356,9.43478261 C19.8354576,9.95652431 19.5916723,10.6086917 19.5916723,11.3913043 C19.5916723,12.1884098 19.8354576,12.8586929 20.3230356,13.4021739 C20.8106136,13.9456548 21.4533203,14.2173913 22.2511753,14.2173913 L22.2511753,14.2173913 L22.2511753,14.2173913 Z M45.4553392,6.17391304 L41.5768972,16.5869565 L38.8509066,16.5869565 L36.922767,10.8478261 L34.9724647,16.5869565 L32.2686367,16.5869565 L28.3901948,6.17391304 L31.692411,6.17391304 L33.6427132,11.9782609 L35.6373405,6.17391304 L38.1860309,6.17391304 L40.2028207,12 L42.1531229,6.17391304 L45.4553392,6.17391304 L45.4553392,6.17391304 Z M46.4748153,17 C45.9724622,17 45.5439911,16.833335 45.1893889,16.5 C44.8347866,16.166665 44.6574882,15.7536257 44.6574882,15.2608696 C44.6574882,14.7826063 44.8347866,14.3768132 45.1893889,14.0434783 C45.5439911,13.7101433 45.9724622,13.5434783 46.4748153,13.5434783 C46.9919435,13.5434783 47.4278021,13.7065201 47.7824043,14.0326087 C48.1370065,14.3586973 48.3143049,14.7681134 48.3143049,15.2608696 C48.3143049,15.7536257 48.1370065,16.166665 47.7824043,16.5 C47.4278021,16.833335 46.9919435,17 46.4748153,17 L46.4748153,17 L46.4748153,17 Z M55.0960376,14.1304348 C55.6870412,14.1304348 56.1819993,13.9855087 56.5809268,13.6956522 C56.9798543,13.4057957 57.2384145,13.0072489 57.3566152,12.5 L60.4372062,12.5 C60.2894553,13.7753687 59.7132354,14.8152133 58.7085292,15.6195652 C57.7038231,16.4239171 56.4996712,16.826087 55.0960376,16.826087 C53.4855527,16.826087 52.1336522,16.3079762 51.0402955,15.2717391 C49.9469388,14.2355021 49.4002686,12.9420368 49.4002686,11.3913043 C49.4002686,9.84057196 49.9469388,8.54710663 51.0402955,7.51086957 C52.1336522,6.4746325 53.4855527,5.95652174 55.0960376,5.95652174 C56.4996712,5.95652174 57.7038231,6.35869163 58.7085292,7.16304348 C59.7132354,7.96739533 60.2894553,9.00724 60.4372062,10.2826087 L57.3566152,10.2826087 C57.2384145,9.77535978 56.9798543,9.37318989 56.5809268,9.07608696 C56.1819993,8.77898402 55.6870412,8.63043478 55.0960376,8.63043478 C54.2981827,8.63043478 53.6554759,8.89492489 53.1678979,9.42391304 C52.6803199,9.95290119 52.4365346,10.6086917 52.4365346,11.3913043 C52.4365346,12.173917 52.6803199,12.8260844 53.1678979,13.3478261 C53.6554759,13.8695678 54.2981827,14.1304348 55.0960376,14.1304348 L55.0960376,14.1304348 L55.0960376,14.1304348 Z M64.1605104,4.23913043 C63.6433822,4.23913043 63.2038299,4.07246543 62.8418402,3.73913043 C62.4798505,3.40579543 62.2988583,2.99275609 62.2988583,2.5 C62.2988583,1.99275109 62.4798505,1.56884228 62.8418402,1.22826087 C63.2038299,0.887679457 63.6433822,0.717391304 64.1605104,0.717391304 C64.6776386,0.717391304 65.1134972,0.887679457 65.4680994,1.22826087 C65.8227016,1.56884228 66,1.99275109 66,2.5 C66,2.99275609 65.8227016,3.40579543 65.4680994,3.73913043 C65.1134972,4.07246543 64.6776386,4.23913043 64.1605104,4.23913043 L64.1605104,4.23913043 L64.1605104,4.23913043 Z M65.7118872,6.17391304 L65.7118872,16.5869565 L62.6312962,16.5869565 L62.6312962,6.17391304 L65.7118872,6.17391304 L65.7118872,6.17391304 Z" id="Flow.ci"></path>
        </g>
    </g>
</svg>
