<?xml version="1.0" encoding="UTF-8" standalone="no"?>
<svg width="99px" height="26px" viewBox="0 0 99 26" version="1.1" xmlns="http://www.w3.org/2000/svg" xmlns:xlink="http://www.w3.org/1999/xlink">
    <!-- Generator: Sketch 40.3 (33839) - http://www.bohemiancoding.com/sketch -->
    <title>flow.ci</title>
    <desc>Created with Sketch.</desc>
    <defs></defs>
    <g id="Page-1" stroke="none" stroke-width="1" fill="none" fill-rule="evenodd">
        <g id="Flowci-Home" transform="translate(-241.000000, -80.000000)" fill="#FFFFFF">
            <path d="M255.078125,84.015625 C254.505205,83.8906244 253.937503,83.791667 253.375,83.71875 C252.812497,83.645833 252.203128,83.609375 251.546875,83.609375 C250.369786,83.609375 249.484378,83.9010387 248.890625,84.484375 C248.296872,85.0677113 248,85.9270777 248,87.0625 L248,87.796875 L251.75,87.796875 L251.75,91 L248,91 L248,101.5 L250.203125,101.96875 L250.203125,104.703125 L241,104.703125 L241,101.96875 L243.4375,101.5 L243.4375,91 L241.3125,91 L241.3125,87.796875 L243.4375,87.796875 L243.4375,87.0625 C243.4375,84.802072 244.119785,83.059902 245.484375,81.8359375 C246.848965,80.611973 248.770821,80 251.25,80 C252.145838,80 253.031246,80.0807284 253.90625,80.2421875 C254.781254,80.4036466 255.796869,80.6354152 256.953125,80.9375 L259.640625,80.9375 L259.640625,101.5 L261.84375,101.96875 L261.84375,104.703125 L252.875,104.703125 L252.875,101.96875 L255.078125,101.5 L255.078125,84.015625 Z M263.578125,96.09375 C263.578125,93.5729041 264.283847,91.5078205 265.695312,89.8984375 C267.106778,88.2890545 269.057279,87.484375 271.546875,87.484375 C274.046888,87.484375 276.002597,88.2864503 277.414062,89.890625 C278.825528,91.4947997 279.53125,93.5624873 279.53125,96.09375 L279.53125,96.421875 C279.53125,98.9635544 278.825528,101.033846 277.414062,102.632812 C276.002597,104.231779 274.057304,105.03125 271.578125,105.03125 C269.067696,105.03125 267.106778,104.231779 265.695312,102.632812 C264.283847,101.033846 263.578125,98.9635544 263.578125,96.421875 L263.578125,96.09375 Z M268.140625,96.421875 C268.140625,97.9635494 268.411456,99.2005162 268.953125,100.132812 C269.494794,101.065109 270.369786,101.53125 271.578125,101.53125 C272.755214,101.53125 273.617185,101.062505 274.164062,100.125 C274.71094,99.1874953 274.984375,97.9531327 274.984375,96.421875 L274.984375,96.09375 C274.984375,94.5937425 274.708336,93.3697964 274.15625,92.421875 C273.604164,91.4739536 272.734381,91 271.546875,91 C270.359369,91 269.494794,91.4739536 268.953125,92.421875 C268.411456,93.3697964 268.140625,94.5937425 268.140625,96.09375 L268.140625,96.421875 Z M305.609375,90.546875 L303.90625,90.765625 L300.375,104.703125 L296.5625,104.703125 L293.421875,94.640625 L293.328125,94.640625 L290.1875,104.703125 L286.390625,104.703125 L282.84375,90.765625 L281.140625,90.546875 L281.140625,87.796875 L288.796875,87.796875 L288.796875,90.546875 L287,90.890625 L288.59375,98.625 L288.6875,98.625 L291.84375,87.796875 L294.90625,87.796875 L298.09375,98.65625 L298.1875,98.65625 L299.765625,90.90625 L297.953125,90.546875 L297.953125,87.796875 L305.609375,87.796875 L305.609375,90.546875 Z M310.8125,104.703125 L306.265625,104.703125 L306.265625,100.703125 L310.8125,100.703125 L310.8125,104.703125 Z M321.328125,101.53125 C322.140629,101.53125 322.791664,101.294273 323.28125,100.820312 C323.770836,100.346352 324.015625,99.7135456 324.015625,98.921875 L328.140625,98.921875 L328.1875,99.015625 C328.229167,100.723967 327.588548,102.15364 326.265625,103.304688 C324.942702,104.455735 323.296885,105.03125 321.328125,105.03125 C318.807279,105.03125 316.86459,104.234383 315.5,102.640625 C314.13541,101.046867 313.453125,99.0000125 313.453125,96.5 L313.453125,96.03125 C313.453125,93.5416542 314.153639,91.4947997 315.554688,89.890625 C316.955736,88.2864503 318.953112,87.484375 321.546875,87.484375 C322.911465,87.484375 324.135411,87.687498 325.21875,88.09375 C326.302089,88.500002 327.203121,89.072913 327.921875,89.8125 L327.984375,94.328125 L324.28125,94.328125 L323.53125,91.6875 C323.302082,91.4895823 323.020835,91.3255215 322.6875,91.1953125 C322.354165,91.0651035 321.97396,91 321.546875,91 C320.255202,91 319.343753,91.4687453 318.8125,92.40625 C318.281247,93.3437547 318.015625,94.5520759 318.015625,96.03125 L318.015625,96.5 C318.015625,98.0104242 318.260414,99.2265579 318.75,100.148438 C319.239586,101.070317 320.098952,101.53125 321.328125,101.53125 L321.328125,101.53125 Z M330.109375,101.96875 L332.3125,101.5 L332.3125,91.015625 L329.875,90.546875 L329.875,87.796875 L336.875,87.796875 L336.875,101.5 L339.0625,101.96875 L339.0625,104.703125 L330.109375,104.703125 L330.109375,101.96875 Z M336.875,83.75 L332.3125,83.75 L332.3125,80.328125 L336.875,80.328125 L336.875,83.75 Z" id="flow.ci"></path>
        </g>
    </g>
</svg>