<?xml version="1.0" encoding="UTF-8" standalone="no"?>
<svg width="99px" height="26px" viewBox="0 0 99 26" version="1.1" xmlns="http://www.w3.org/2000/svg" xmlns:xlink="http://www.w3.org/1999/xlink">
    <!-- Generator: Sketch 40.3 (33839) - http://www.bohemiancoding.com/sketch -->
    <title>flow.ci</title>
    <desc>Created with Sketch.</desc>
    <defs></defs>
    <g id="Page-1" stroke="none" stroke-width="1" fill="none" fill-rule="evenodd">
        <g id="Flowci-Home" transform="translate(-240.000000, -62.000000)" fill="#556AF8">
            <path d="M254.6875,66.3125 C254.11458,66.1874994 253.546878,66.088542 252.984375,66.015625 C252.421872,65.942708 251.812503,65.90625 251.15625,65.90625 C249.979161,65.90625 249.093753,66.1979137 248.5,66.78125 C247.906247,67.3645863 247.609375,68.2239527 247.609375,69.359375 L247.609375,70.09375 L251.359375,70.09375 L251.359375,73.296875 L247.609375,73.296875 L247.609375,83.796875 L249.8125,84.265625 L249.8125,87 L240.609375,87 L240.609375,84.265625 L243.046875,83.796875 L243.046875,73.296875 L240.921875,73.296875 L240.921875,70.09375 L243.046875,70.09375 L243.046875,69.359375 C243.046875,67.098947 243.72916,65.356777 245.09375,64.1328125 C246.45834,62.908848 248.380196,62.296875 250.859375,62.296875 C251.755213,62.296875 252.640621,62.3776034 253.515625,62.5390625 C254.390629,62.7005216 255.406244,62.9322902 256.5625,63.234375 L259.25,63.234375 L259.25,83.796875 L261.453125,84.265625 L261.453125,87 L252.484375,87 L252.484375,84.265625 L254.6875,83.796875 L254.6875,66.3125 Z M263.1875,78.390625 C263.1875,75.8697791 263.893222,73.8046955 265.304688,72.1953125 C266.716153,70.5859295 268.666654,69.78125 271.15625,69.78125 C273.656263,69.78125 275.611972,70.5833253 277.023438,72.1875 C278.434903,73.7916747 279.140625,75.8593623 279.140625,78.390625 L279.140625,78.71875 C279.140625,81.2604294 278.434903,83.3307212 277.023438,84.9296875 C275.611972,86.5286538 273.666679,87.328125 271.1875,87.328125 C268.677071,87.328125 266.716153,86.5286538 265.304688,84.9296875 C263.893222,83.3307212 263.1875,81.2604294 263.1875,78.71875 L263.1875,78.390625 Z M267.75,78.71875 C267.75,80.2604244 268.020831,81.4973912 268.5625,82.4296875 C269.104169,83.3619838 269.979161,83.828125 271.1875,83.828125 C272.364589,83.828125 273.22656,83.3593797 273.773438,82.421875 C274.320315,81.4843703 274.59375,80.2500077 274.59375,78.71875 L274.59375,78.390625 C274.59375,76.8906175 274.317711,75.6666714 273.765625,74.71875 C273.213539,73.7708286 272.343756,73.296875 271.15625,73.296875 C269.968744,73.296875 269.104169,73.7708286 268.5625,74.71875 C268.020831,75.6666714 267.75,76.8906175 267.75,78.390625 L267.75,78.71875 Z M305.21875,72.84375 L303.515625,73.0625 L299.984375,87 L296.171875,87 L293.03125,76.9375 L292.9375,76.9375 L289.796875,87 L286,87 L282.453125,73.0625 L280.75,72.84375 L280.75,70.09375 L288.40625,70.09375 L288.40625,72.84375 L286.609375,73.1875 L288.203125,80.921875 L288.296875,80.921875 L291.453125,70.09375 L294.515625,70.09375 L297.703125,80.953125 L297.796875,80.953125 L299.375,73.203125 L297.5625,72.84375 L297.5625,70.09375 L305.21875,70.09375 L305.21875,72.84375 Z M310.421875,87 L305.875,87 L305.875,83 L310.421875,83 L310.421875,87 Z M320.9375,83.828125 C321.750004,83.828125 322.401039,83.5911482 322.890625,83.1171875 C323.380211,82.6432268 323.625,82.0104206 323.625,81.21875 L327.75,81.21875 L327.796875,81.3125 C327.838542,83.0208419 327.197923,84.4505151 325.875,85.6015625 C324.552077,86.7526099 322.90626,87.328125 320.9375,87.328125 C318.416654,87.328125 316.473965,86.531258 315.109375,84.9375 C313.744785,83.343742 313.0625,81.2968875 313.0625,78.796875 L313.0625,78.328125 C313.0625,75.8385292 313.763014,73.7916747 315.164062,72.1875 C316.565111,70.5833253 318.562487,69.78125 321.15625,69.78125 C322.52084,69.78125 323.744786,69.984373 324.828125,70.390625 C325.911464,70.796877 326.812496,71.369788 327.53125,72.109375 L327.59375,76.625 L323.890625,76.625 L323.140625,73.984375 C322.911457,73.7864573 322.63021,73.6223965 322.296875,73.4921875 C321.96354,73.3619785 321.583335,73.296875 321.15625,73.296875 C319.864577,73.296875 318.953128,73.7656203 318.421875,74.703125 C317.890622,75.6406297 317.625,76.8489509 317.625,78.328125 L317.625,78.796875 C317.625,80.3072992 317.869789,81.5234329 318.359375,82.4453125 C318.848961,83.3671921 319.708327,83.828125 320.9375,83.828125 L320.9375,83.828125 Z M329.71875,84.265625 L331.921875,83.796875 L331.921875,73.3125 L329.484375,72.84375 L329.484375,70.09375 L336.484375,70.09375 L336.484375,83.796875 L338.671875,84.265625 L338.671875,87 L329.71875,87 L329.71875,84.265625 Z M336.484375,66.046875 L331.921875,66.046875 L331.921875,62.625 L336.484375,62.625 L336.484375,66.046875 Z" id="flow.ci"></path>
        </g>
    </g>
</svg>