<?xml version="1.0" encoding="UTF-8" standalone="no"?>
<svg width="67px" height="17px" viewBox="0 0 67 17" version="1.1" xmlns="http://www.w3.org/2000/svg" xmlns:xlink="http://www.w3.org/1999/xlink">
    <!-- Generator: Sketch 3.6.1 (26313) - http://www.bohemiancoding.com/sketch -->
    <title>logo-inline-white</title>
    <desc>Created with Sketch.</desc>
    <defs></defs>
    <g id="Page-1" stroke="none" stroke-width="1" fill="none" fill-rule="evenodd">
        <g id="logo-inline-white" fill="#FFFFFF">
            <path d="M2.816,6.248 L2.816,4.752 C2.816,3.32932622 3.22666256,2.18167103 4.048,1.309 C4.86933744,0.43632897 5.95465992,0 7.304,0 C8.1106707,0 8.97599538,0.12466542 9.9,0.374 L9.482,2.992 C8.85133018,2.85999934 8.33066872,2.794 7.92,2.794 C7.30399692,2.794 6.80900187,2.96999824 6.435,3.322 C6.06099813,3.67400176 5.874,4.1433304 5.874,4.73 L5.874,6.248 L9.416,6.248 L9.416,8.822 L5.874,8.822 L5.874,16.786 L2.816,16.786 L2.816,8.822 L0,8.822 L0,6.248 L2.816,6.248 Z M14.256,1.166 L14.256,16.786 L11.198,16.786 L11.198,1.166 L14.256,1.166 Z M22.088,6.028 C23.7013414,6.028 25.0396613,6.54499483 26.103,7.579 C27.1663387,8.61300517 27.698,9.92932534 27.698,11.528 C27.698,13.1413414 27.1663387,14.4759947 26.103,15.532 C25.0396613,16.5880053 23.7013414,17.116 22.088,17.116 C20.4599919,17.116 19.110672,16.5880053 18.04,15.532 C16.969328,14.4759947 16.434,13.1413414 16.434,11.528 C16.434,9.92932534 16.969328,8.61300517 18.04,7.579 C19.110672,6.54499483 20.4599919,6.028 22.088,6.028 L22.088,6.028 Z M22.088,14.388 C22.8653372,14.388 23.4923309,14.1130027 23.969,13.563 C24.445669,13.0129972 24.684,12.3346707 24.684,11.528 C24.684,10.735996 24.445669,10.0760026 23.969,9.548 C23.4923309,9.01999736 22.8653372,8.756 22.088,8.756 C21.295996,8.756 20.6580024,9.01999736 20.174,9.548 C19.6899976,10.0760026 19.448,10.735996 19.448,11.528 C19.448,12.3346707 19.6899976,13.0129972 20.174,13.563 C20.6580024,14.1130027 21.295996,14.388 22.088,14.388 L22.088,14.388 Z M45.122,6.248 L41.272,16.786 L38.566,16.786 L36.652,10.978 L34.716,16.786 L32.032,16.786 L28.182,6.248 L31.46,6.248 L33.396,12.122 L35.376,6.248 L37.906,6.248 L39.908,12.144 L41.844,6.248 L45.122,6.248 Z M46.134,17.204 C45.6353308,17.204 45.2100018,17.035335 44.858,16.698 C44.5059982,16.360665 44.33,15.9426692 44.33,15.444 C44.33,14.9599976 44.5059982,14.549335 44.858,14.212 C45.2100018,13.874665 45.6353308,13.706 46.134,13.706 C46.6473359,13.706 47.0799982,13.8709983 47.432,14.201 C47.7840018,14.5310017 47.96,14.9453308 47.96,15.444 C47.96,15.9426692 47.7840018,16.360665 47.432,16.698 C47.0799982,17.035335 46.6473359,17.204 46.134,17.204 L46.134,17.204 Z M54.692,14.3 C55.2786696,14.3 55.769998,14.1533348 56.166,13.86 C56.562002,13.5666652 56.8186661,13.1633359 56.936,12.65 L59.994,12.65 C59.8473326,13.9406731 59.2753383,14.9929959 58.278,15.807 C57.2806617,16.6210041 56.0853403,17.028 54.692,17.028 C53.0933253,17.028 51.7513388,16.5036719 50.666,15.455 C49.5806612,14.4063281 49.038,13.0973412 49.038,11.528 C49.038,9.95865882 49.5806612,8.64967191 50.666,7.601 C51.7513388,6.55232809 53.0933253,6.028 54.692,6.028 C56.0853403,6.028 57.2806617,6.43499593 58.278,7.249 C59.2753383,8.06300407 59.8473326,9.11532688 59.994,10.406 L56.936,10.406 C56.8186661,9.8926641 56.562002,9.48566817 56.166,9.185 C55.769998,8.88433183 55.2786696,8.734 54.692,8.734 C53.899996,8.734 53.2620024,9.00166399 52.778,9.537 C52.2939976,10.072336 52.052,10.735996 52.052,11.528 C52.052,12.320004 52.2939976,12.9799974 52.778,13.508 C53.2620024,14.0360026 53.899996,14.3 54.692,14.3 L54.692,14.3 Z M63.69,4.29 C63.1766641,4.29 62.7403351,4.12133502 62.381,3.784 C62.0216649,3.44666498 61.842,3.02866916 61.842,2.53 C61.842,2.0166641 62.0216649,1.58766839 62.381,1.243 C62.7403351,0.89833161 63.1766641,0.726 63.69,0.726 C64.2033359,0.726 64.6359982,0.89833161 64.988,1.243 C65.3400018,1.58766839 65.516,2.0166641 65.516,2.53 C65.516,3.02866916 65.3400018,3.44666498 64.988,3.784 C64.6359982,4.12133502 64.2033359,4.29 63.69,4.29 L63.69,4.29 Z M65.23,6.248 L65.23,16.786 L62.172,16.786 L62.172,6.248 L65.23,6.248 Z" id="Flow.ci"></path>
        </g>
    </g>
</svg>