<?xml version="1.0" encoding="UTF-8" standalone="no"?>
<svg width="90px" height="106px" viewBox="0 0 90 106" version="1.1" xmlns="http://www.w3.org/2000/svg" xmlns:xlink="http://www.w3.org/1999/xlink">
    <!-- Generator: Sketch 40.3 (33839) - http://www.bohemiancoding.com/sketch -->
    <title>Time</title>
    <desc>Created with Sketch.</desc>
    <defs></defs>
    <g id="Page-1" stroke="none" stroke-width="1" fill="none" fill-rule="evenodd">
        <g id="Flowci-Home" transform="translate(-507.000000, -963.000000)">
            <g id="Time" transform="translate(507.000000, 963.000000)">
                <path d="M76.987069,30.1551724 L85.1540948,20.2747845 L78.1293103,14.4493534 L70.0193966,24.2726293 C64.0226293,20.1605603 56.9407328,17.4762931 49.3448276,16.6767241 L49.3448276,9.13793103 L58.4827586,9.13793103 L58.4827586,0 L31.0689655,0 L31.0689655,9.13793103 L40.2068966,9.13793103 L40.2068966,16.6767241 C17.6476293,18.9612069 5.68434189e-14,38.09375 5.68434189e-14,61.2241379 C5.68434189e-14,85.8965517 20.1034483,106 44.7758621,106 C56.7122845,106 67.9633621,101.31681 76.4159483,92.8642241 C84.8685345,84.4116379 89.5517241,73.1605603 89.5517241,61.2241379 C89.5517241,49.1734914 84.7543103,38.2079741 76.987069,30.1551724 L76.987069,30.1551724 Z M70.2478448,86.6961207 C63.4515086,93.4924569 54.3706897,97.2047414 44.7758621,97.2047414 C24.9008621,97.2047414 8.79525862,81.0991379 8.79525862,61.2241379 C8.79525862,41.3491379 24.9008621,25.2435345 44.7758621,25.2435345 C64.6508621,25.2435345 80.7564655,41.3491379 80.7564655,61.2241379 C80.7564655,70.8189655 77.044181,79.8997845 70.2478448,86.6961207 L70.2478448,86.6961207 Z" id="timer" fill="#53575C"></path>
                <path d="M49.03125,37 L44.4375,37 L42.4375,55.4765625 C40.3427734,56.8730469 39,59.2363281 39,61.921875 C39,66.1650391 42.4912109,69.65625 46.734375,69.65625 C50.9775391,69.65625 54.46875,66.1650391 54.46875,61.921875 C54.46875,59.2363281 53.1259766,56.8730469 51.03125,55.4765625 L49.03125,37 Z" id="Path" fill="#556AF9" transform="translate(46.734375, 53.328125) rotate(10.000000) translate(-46.734375, -53.328125) "></path>
            </g>
        </g>
    </g>
</svg>