<?xml version="1.0" standalone="no"?>
<!DOCTYPE svg PUBLIC "-//W3C//DTD SVG 1.1//EN" "http://www.w3.org/Graphics/SVG/1.1/DTD/svg11.dtd" >
<svg xmlns="http://www.w3.org/2000/svg">
<metadata>Generated by IcoMoon</metadata>
<defs>
<font id="flowci" horiz-adv-x="1024">
<font-face units-per-em="1024" ascent="960" descent="-64" />
<missing-glyph horiz-adv-x="1024" />
<glyph unicode="&#x20;" horiz-adv-x="512" d="" />
<glyph unicode="&#xe600;" glyph-name="close" d="M989.867 960l-477.867-479.573-479.573 479.573-32.427-32.427 477.867-479.573-477.867-479.573 32.427-32.427 479.573 479.573 477.867-479.573 34.133 32.427-479.573 479.573 479.573 479.573z" />
<glyph unicode="&#xe900;" glyph-name="logo-inline" horiz-adv-x="4267" d="M223.894 589.645h-154.64v-180.63h154.64v-449.624h210.518v449.624h192.325v180.63h-192.325v80.569c0 62.376 42.883 102.66 109.158 102.66 28.589 0 66.274-5.198 96.163-11.696l28.589 175.432c-63.675 16.893-116.954 23.391-167.634 23.391-161.137 0-276.792-113.056-276.792-294.985v-75.371zM938.616 882.031h-210.518v-922.64h210.518v922.64zM1396.038 603.94c-198.823 0-341.766-139.045-341.766-328.772 0-192.325 142.945-335.27 341.766-335.27s341.766 142.945 341.766 335.27c0 189.726-142.945 328.772-341.766 328.772v0zM1397.337 121.827c-85.767 0-142.945 67.574-142.945 152.041 0 81.868 57.178 148.142 142.945 148.142 84.467 0 141.645-66.274 141.645-148.142 0-84.467-57.178-152.041-141.645-152.041v0zM2816.384 589.645h-219.614l-98.761-335.27-106.558 335.27h-166.336l-106.558-337.868-98.761 337.868h-220.914l217.016-630.254h191.025l101.36 324.873 100.061-324.873h192.325l215.716 630.254zM2987.917-64c64.974 0 118.254 49.38 118.254 114.356 0 63.675-53.28 113.056-118.254 113.056s-118.254-49.38-118.254-113.056c0-64.974 53.28-114.356 118.254-114.356v0zM3527.207 123.127c-89.665 0-144.243 66.274-144.243 152.041s54.578 150.741 144.243 150.741c64.974 0 113.056-37.685 123.452-94.863h198.823c-14.294 162.436-148.142 272.894-322.274 272.894-198.823 0-344.366-137.747-344.366-328.772 0-192.325 145.543-330.071 344.366-330.071 174.132 0 307.98 110.457 322.274 272.894h-198.823c-10.396-57.178-58.478-94.863-123.452-94.863v0zM4074.293 688.407c67.574 0 123.452 50.68 123.452 118.254 0 68.873-55.878 119.554-123.452 119.554-68.873 0-123.452-50.68-123.452-119.554 0-67.574 54.578-118.254 123.452-118.254v0zM4180.852 589.645h-210.518v-630.254h210.518v630.254z" />
<glyph unicode="&#xe901;" glyph-name="logo" d="M38.355 483.133h-38.355v-44.802h38.355v-111.522h52.215v111.522h47.703v44.802h-47.703v19.983c0 15.471 10.636 25.463 27.075 25.463 7.091 0 16.438-1.289 23.851-2.901l7.091 43.513c-15.794 4.191-29.008 5.801-41.579 5.801-39.967 0-68.653-28.042-68.653-73.166v-18.695zM215.629 555.654h-52.215v-228.845h52.215v228.845zM329.086 486.678c-49.314 0-84.769-34.488-84.769-81.546 0-47.703 35.455-83.157 84.769-83.157s84.769 35.455 84.769 83.157c0 47.058-35.455 81.546-84.769 81.546v0zM329.408 367.099c-21.272 0-35.455 16.76-35.455 37.711 0 20.306 14.182 36.744 35.455 36.744 20.951 0 35.133-16.438 35.133-36.744 0-20.951-14.182-37.711-35.133-37.711v0zM681.378 483.133h-54.472l-24.496-83.157-26.43 83.157h-41.257l-26.43-83.803-24.496 83.803h-54.794l53.827-156.324h47.381l25.14 80.579 24.818-80.579h47.703l53.505 156.324zM723.924 321.007c16.116 0 29.331 12.248 29.331 28.364 0 15.794-13.215 28.042-29.331 28.042s-29.331-12.248-29.331-28.042c0-16.116 13.215-28.364 29.331-28.364v0zM857.686 367.421c-22.24 0-35.777 16.438-35.777 37.711s13.537 37.389 35.777 37.389c16.116 0 28.042-9.347 30.62-23.53h49.314c-3.545 40.29-36.744 67.686-79.935 67.686-49.314 0-85.413-34.166-85.413-81.546 0-47.703 36.099-81.868 85.413-81.868 43.19 0 76.389 27.397 79.935 67.686h-49.314c-2.579-14.182-14.504-23.53-30.62-23.53v0zM993.381 507.629c16.76 0 30.62 12.571 30.62 29.331 0 17.083-13.86 29.653-30.62 29.653-17.083 0-30.62-12.571-30.62-29.653 0-16.76 13.537-29.331 30.62-29.331v0zM1019.811 483.133h-52.215v-156.324h52.215v156.324z" />
<glyph unicode="&#xe902;" glyph-name="repo-push" horiz-adv-x="768" d="M448 640l-192-256h128v-448h128v448h128l-192 256zM256 640h64v64h-64v-64zM320 832h-64v-64h64v64zM704 960c-32 0-608 0-640 0s-64-32-64-64 0-736 0-768 32-64 64-64 128 0 128 0v-128l128 128v128h-128v-64s-79 0-96 0-32 14-32 32 0 96 0 96h256v64h-128v576h513l-1-576h-128v-64h128s0-79 0-96-15-32-32-32-96 0-96 0v-64s96 0 128 0 64 32 64 64 0 736 0 768-32 64-64 64z" />
<glyph unicode="&#xe903;" glyph-name="menu" d="M0 847.36h1024v-114.103h-1024v114.103zM0 505.051h1024v-114.103h-1024v114.103zM0 162.743h796.444v-114.103h-796.444v114.103z" />
<glyph unicode="&#xe904;" glyph-name="code-fork" horiz-adv-x="585" d="M164.571 118.857q0 22.857-16 38.857t-38.857 16-38.857-16-16-38.857 16-38.857 38.857-16 38.857 16 16 38.857zM164.571 777.143q0 22.857-16 38.857t-38.857 16-38.857-16-16-38.857 16-38.857 38.857-16 38.857 16 16 38.857zM530.286 704q0 22.857-16 38.857t-38.857 16-38.857-16-16-38.857 16-38.857 38.857-16 38.857 16 16 38.857zM585.143 704q0-29.714-14.857-55.143t-40-39.714q-1.143-164-129.143-236.571-38.857-21.714-116-46.286-73.143-22.857-96.857-40.571t-23.714-57.143v-14.857q25.143-14.286 40-39.714t14.857-55.143q0-45.714-32-77.714t-77.714-32-77.714 32-32 77.714q0 29.714 14.857 55.143t40 39.714v468.571q-25.143 14.286-40 39.714t-14.857 55.143q0 45.714 32 77.714t77.714 32 77.714-32 32-77.714q0-29.714-14.857-55.143t-40-39.714v-284q30.857 14.857 88 32.571 31.429 9.714 50 16.857t40.286 17.714 33.714 22.571 23.143 29.143 16 39.714 4.857 52.286q-25.143 14.286-40 39.714t-14.857 55.143q0 45.714 32 77.714t77.714 32 77.714-32 32-77.714z" />
<glyph unicode="&#xe905;" glyph-name="git-commit" horiz-adv-x="896" d="M694.875 512c-28.5 110.219-127.75 192-246.875 192-119.094 0-218.375-81.781-246.906-192h-201.094v-128h201.094c28.531-110.25 127.812-192 246.906-192 119.125 0 218.375 81.75 246.875 192h201.125v128h-201.125zM448 320c-70.656 0-128 57.375-128 128 0 70.656 57.344 128 128 128 70.625 0 128-57.344 128-128 0-70.625-57.375-128-128-128z" />
<glyph unicode="&#xe906;" glyph-name="dots-three-horizontal" d="M512.055 570.435c-67.617 0-122.49-54.817-122.49-122.435s54.873-122.435 122.49-122.435c67.617 0 122.379 54.817 122.379 122.435s-54.762 122.435-122.379 122.435zM122.49 570.435c-67.617 0-122.49-54.817-122.49-122.435s54.873-122.435 122.49-122.435c67.617 0 122.379 54.873 122.379 122.435s-54.762 122.435-122.379 122.435zM901.621 570.435c-67.617 0-122.49-54.817-122.49-122.435s54.873-122.435 122.49-122.435c67.617 0 122.379 54.817 122.379 122.435s-54.762 122.435-122.379 122.435z" />
<glyph unicode="&#xe907;" glyph-name="mac" d="M930.315 354.314v466.247h-836.63v-466.247h836.63zM930.315 912.067q37.038 0 65.362-27.234t28.323-64.272v-557.753q0-37.038-28.323-65.362t-65.362-28.323h-324.63l91.506-139.438v-45.753h-370.383v45.753l91.506 139.438h-324.63q-37.038 0-65.362 28.323t-28.323 65.362v557.753q0 37.038 28.323 64.272t65.362 27.234h836.63z" />
<glyph unicode="&#xe908;" glyph-name="list" d="M226.667 733.332h797.333v-114.667h-797.333v114.667zM226.667 162.666v114.667h797.333v-114.667h-797.333zM226.667 391.999v112h797.333v-112h-797.333zM0 618.666v114.667h114.667v-114.667h-114.667zM0 162.666v114.667h114.667v-114.667h-114.667zM0 391.999v112h114.667v-112h-114.667z" />
<glyph unicode="&#xe909;" glyph-name="timer" d="M951.496 375.497c0-242.714-196.748-439.497-439.497-439.497-242.714 0-439.497 196.783-439.497 439.497 0 235.327 185.055 426.824 417.547 438.342v75.829h-32.943c-19.43 0-35.184 15.754-35.184 35.184s15.754 35.149 35.184 35.149h105.446c19.43 0 35.184-15.719 35.184-35.149s-15.754-35.184-35.184-35.184h-37.319v-75.373c236.553-7.002 426.264-200.564 426.264-438.797zM490.048 678.74v80.205c-108.842-6.162-205.36-57.414-271.876-135.063l57.869-57.869-24.856-24.891-54.788 54.823c-44.601-62.945-71.137-139.579-71.137-222.619 0-3.711 0.525-8.787 0.525-8.787h85.141v-35.184h-82.62c8.542-71.838 37.004-139.579 79.399-193.737l43.516 43.516 24.856-24.856-45.371-45.406c65.781-69.877 157.118-115.423 259.343-121.2v95.538h35.149v-95.993c104.641 3.571 198.498 48.767 266.030 119.379l-49.852 49.852 24.856 24.856 48.207-48.172c43.411 54.613 72.608 123.265 81.29 196.188h-89.272v35.184h91.757c0.105 3.641 0.56 5.076 0.56 8.787 0 85.351-28.007 163.875-74.848 227.731l-57.694-57.694-24.856 24.856 60.425 60.39c-68.162 77.124-166.396 127.116-276.568 130.827v-80.66h-35.184zM527.367 364.504h123.090c9.697 0 17.574-7.912 17.574-17.574 0-9.697-7.877-17.609-17.574-17.609h-140.664c-9.697 0-17.574 7.912-17.574 17.609v243.905c0 9.697 7.877 17.574 17.574 17.574s17.574-7.877 17.574-17.574v-226.33z" />
<glyph unicode="&#xe90a;" glyph-name="github" d="M512.008 947.358c-282.738 0-512.008-229.218-512.008-511.998 0-226.214 146.704-418.132 350.136-485.836 25.586-4.738 34.992 11.11 34.992 24.632 0 12.204-0.48 52.542-0.696 95.324-142.448-30.976-172.504 60.41-172.504 60.41-23.282 59.176-56.848 74.916-56.848 74.916-46.452 31.778 3.51 31.124 3.51 31.124 51.4-3.61 78.476-52.766 78.476-52.766 45.672-78.27 119.776-55.64 149.004-42.558 4.588 33.086 17.852 55.68 32.506 68.464-113.73 12.942-233.276 56.85-233.276 253.032 0 55.898 20.004 101.574 52.76 137.428-5.316 12.9-22.854 64.972 4.952 135.5 0 0 43.006 13.752 140.84-52.49 40.836 11.348 84.636 17.036 128.154 17.234 43.502-0.198 87.336-5.886 128.256-17.234 97.734 66.244 140.656 52.49 140.656 52.49 27.872-70.528 10.35-122.6 5.036-135.5 32.82-35.856 52.694-81.532 52.694-137.428 0-196.654-119.778-239.95-233.79-252.624 18.364-15.89 34.724-47.046 34.724-94.812 0-68.508-0.596-123.644-0.596-140.508 0-13.628 9.222-29.594 35.172-24.566 203.322 67.776 349.842 259.626 349.842 485.768 0 282.78-229.234 511.998-511.992 511.998z" />
<glyph unicode="&#xe90b;" glyph-name="android" d="M896 576c-35.2 0-64-28.8-64-64v-256c0-35.2 28.8-64 64-64s64 28.8 64 64v256c0 35.2-28.8 64-64 64zM128 576c-35.2 0-64-28.8-64-64v-256c0-35.2 28.8-64 64-64s64 28.8 64 64v256c0 35.2-28.802 64-64 64zM224 224c0-53.020 42.98-96 96-96v0-128c0-35.2 28.8-64 64-64s64 28.8 64 64v128h128v-128c0-35.2 28.8-64 64-64s64 28.8 64 64v128c53.020 0 96 42.98 96 96v352h-576v-352zM798.216 639.998c-9.716 87.884-59.004 163.792-129.62 209.646l32.024 64.046c7.904 15.806 1.496 35.028-14.31 42.932s-35.030 1.496-42.932-14.312l-32.142-64.286-8.35 3.316c-28.568 9.502-59.122 14.66-90.886 14.66-31.762 0-62.316-5.158-90.888-14.656l-8.348-3.316-32.142 64.282c-7.904 15.808-27.128 22.212-42.932 14.312-15.808-7.904-22.214-27.126-14.312-42.932l32.022-64.046c-70.616-45.852-119.904-121.762-129.622-209.644v-32h574.222v31.998h-1.784zM416 704c-17.674 0-32 14.328-32 32 0 17.648 14.288 31.958 31.93 31.996 0.032 0 0.062-0.002 0.094-0.002 0.018 0 0.036 0.002 0.052 0.002 17.638-0.042 31.924-14.35 31.924-31.996 0-17.672-14.326-32-32-32zM608 704c-17.674 0-32 14.328-32 32 0 17.646 14.286 31.954 31.924 31.996 0.016 0 0.034-0.002 0.050-0.002 0.032 0 0.064 0.002 0.096 0.002 17.64-0.038 31.93-14.348 31.93-31.996 0-17.672-14.326-32-32-32z" />
<glyph unicode="&#xe90c;" glyph-name="search" d="M418.911 960q85.091 0 162.728-33.273t133.636-89.272 89.272-133.636 33.273-162.728q0-73.091-23.818-140t-67.819-121.454l264.363-264q13.454-13.454 13.454-33.091 0-20-13.273-33.273t-33.273-13.273q-19.636 0-33.091 13.454l-264 264.363q-54.545-44-121.454-67.819t-140-23.818q-85.091 0-162.728 33.273t-133.636 89.272-89.272 133.636-33.273 162.728 33.273 162.728 89.272 133.636 133.636 89.272 162.728 33.273zM418.911 866.909q-66.182 0-126.546-25.819t-104-69.455-69.455-104-25.819-126.546 25.819-126.546 69.455-104 104-69.455 126.546-25.819 126.546 25.819 104 69.455 69.455 104 25.819 126.546-25.819 126.546-69.455 104-104 69.455-126.546 25.819z" />
<glyph unicode="&#xe90d;" glyph-name="trash" d="M931 773.891h-46.555v-744.892c0-51.397-41.714-93.112-93.112-93.112h-558.669c-51.397 0-93.112 41.714-93.112 93.112v744.892h-46.555c-25.699 0-46.555 20.811-46.555 46.555s20.857 46.555 46.555 46.555h279.335c0 51.397 41.714 93.112 93.112 93.112h93.112c51.397 0 93.112-41.714 93.112-93.112h279.335c25.746 0 46.555-20.811 46.555-46.555s-20.811-46.555-46.555-46.555zM791.333 773.891h-558.669v-744.892h558.669v744.892zM418.886 680.779c25.699 0 46.555-20.811 46.555-46.555v-465.558c0-25.746-20.857-46.555-46.555-46.555s-46.555 20.811-46.555 46.555v465.558c0 25.746 20.857 46.555 46.555 46.555zM605.11 680.779c25.746 0 46.555-20.811 46.555-46.555v-465.558c0-25.746-20.811-46.555-46.555-46.555s-46.555 20.811-46.555 46.555v465.558c0 25.746 20.811 46.555 46.555 46.555z" />
<glyph unicode="&#xe90e;" glyph-name="file-text2" d="M917.806 730.924c-22.212 30.292-53.174 65.7-87.178 99.704s-69.412 64.964-99.704 87.178c-51.574 37.82-76.592 42.194-90.924 42.194h-496c-44.112 0-80-35.888-80-80v-864c0-44.112 35.888-80 80-80h736c44.112 0 80 35.888 80 80v624c0 14.332-4.372 39.35-42.194 90.924zM785.374 785.374c30.7-30.7 54.8-58.398 72.58-81.374h-153.954v153.946c22.984-17.78 50.678-41.878 81.374-72.572zM896 16c0-8.672-7.328-16-16-16h-736c-8.672 0-16 7.328-16 16v864c0 8.672 7.328 16 16 16 0 0 495.956 0.002 496 0v-224c0-17.672 14.326-32 32-32h224v-624zM736 128h-448c-17.672 0-32 14.326-32 32s14.328 32 32 32h448c17.674 0 32-14.326 32-32s-14.326-32-32-32zM736 256h-448c-17.672 0-32 14.326-32 32s14.328 32 32 32h448c17.674 0 32-14.326 32-32s-14.326-32-32-32zM736 384h-448c-17.672 0-32 14.326-32 32s14.328 32 32 32h448c17.674 0 32-14.326 32-32s-14.326-32-32-32z" />
<glyph unicode="&#xe90f;" glyph-name="key" d="M506.206 698.776q0 48.694-34.086 82.779t-82.779 34.086-82.779-34.086-34.086-82.779q0-25.564 11.565-50.52-24.956 11.565-50.52 11.565-48.694 0-82.779-34.086t-34.086-82.779 34.086-82.779 82.779-34.086 82.779 34.086 34.086 82.779q0 25.564-11.565 50.52 24.956-11.565 50.52-11.565 48.694 0 82.779 34.086t34.086 82.779zM1024.188 270.268q0-10.347-29.825-40.172t-40.172-29.825q-5.478 0-17.348 9.739t-22.216 20.086-23.434 24.347-14.913 15.825l-58.433-58.433 133.908-133.908q17.043-17.043 17.043-41.39 0-25.564-23.739-49.303t-49.303-23.739q-24.347 0-41.39 17.043l-408.421 408.421q-107.126-79.736-222.166-79.736-99.214 0-161.603 62.389t-62.389 161.603q0 97.388 57.824 190.515t150.951 150.951 190.515 57.824q99.214 0 161.603-62.389t62.389-161.603q0-115.040-79.736-222.166l216.079-216.079 58.433 58.433q-1.826 1.826-15.825 14.913t-24.347 23.434-20.086 22.216-9.739 17.348q0 10.347 29.825 40.172t40.172 29.825q7.913 0 14-6.086 3.653-3.653 27.999-27.086t49.911-48.39 52.651-52.346 44.433-47.476 17.348-24.956z" />
<glyph unicode="&#xe910;" glyph-name="gear" horiz-adv-x="896" d="M447.936 610.063c-89.442 0-162.001-72.559-162.001-162.063 0-89.41 72.559-162.125 162.001-162.125 89.473 0 161.501 72.716 161.501 162.125-0.001 89.504-72.029 162.063-161.501 162.063zM772.75 354.902l-29.199-70.339 58.96-115.795-72.216-72.216-118.482 55.959-70.339-28.886-35.702-109.293-4.564-14.506h-102.072l-44.173 123.36-70.339 29.011-115.949-58.711-72.184 72.153 55.897 118.546-28.98 70.277-123.582 40.329v102.009l123.454 44.236 28.98 70.215-51.926 102.509-6.847 13.443 72.090 72.090 118.64-55.866 70.246 29.042 35.67 109.231 4.596 14.474h102.040l44.205-123.517 70.152-29.042 116.107 58.836 72.153-72.090-55.897-118.452 28.886-70.372 123.798-40.266v-101.978l-123.423-44.391z" />
<glyph unicode="&#xe911;" glyph-name="hour-glass" d="M728.992 448c137.754 87.334 231.008 255.208 231.008 448 0 21.676-1.192 43.034-3.478 64h-889.042c-2.29-20.968-3.48-42.326-3.48-64 0-192.792 93.254-360.666 231.006-448-137.752-87.334-231.006-255.208-231.006-448 0-21.676 1.19-43.034 3.478-64h889.042c2.288 20.966 3.478 42.324 3.478 64 0.002 192.792-93.252 360.666-231.006 448zM160 0c0 186.912 80.162 345.414 224 397.708v100.586c-143.838 52.29-224 210.792-224 397.706v0h704c0-186.914-80.162-345.416-224-397.706v-100.586c143.838-52.294 224-210.796 224-397.708h-704zM619.626 290.406c-71.654 40.644-75.608 93.368-75.626 125.366v64.228c0 31.994 3.804 84.914 75.744 125.664 38.504 22.364 71.808 56.348 97.048 98.336h-409.582c25.266-42.032 58.612-76.042 97.166-98.406 71.654-40.644 75.606-93.366 75.626-125.366v-64.228c0-31.992-3.804-84.914-75.744-125.664-72.622-42.18-126.738-125.684-143.090-226.336h501.67c-16.364 100.708-70.53 184.248-143.212 226.406z" />
<glyph unicode="&#xe912;" glyph-name="ruby" d="M1002.138 583.752h-980.276c-7.944 0-15.164 4.606-18.514 11.814s-2.216 15.704 2.9 21.77l235.104 278.848c3.88 4.606 9.588 7.26 15.612 7.26h510.12c6.024 0 11.732-2.656 15.614-7.26l235.052-278.848c5.116-6.076 6.248-14.572 2.9-21.77s-10.568-11.814-18.514-11.814h0.002zM65.802 624.598h892.418l-200.62 238.002h-491.14l-200.658-238.002zM512-9.59l-505.762 600.614 31.246 26.304 474.514-563.496 474.514 563.496 31.246-26.304-505.758-600.614zM512 1.704v0c-8.668 0-16.38 5.462-19.258 13.632l-205.204 582.048c-2.258 6.382-1.194 13.448 2.808 18.902l205.204 278.848c7.678 10.456 25.19 10.456 32.89 0l205.246-278.848c4.014-5.442 5.066-12.52 2.808-18.902l-205.246-582.048c-2.87-8.168-10.578-13.632-19.248-13.632v0zM329.648 600.774l182.342-517.238 182.382 517.238-182.372 247.794-182.352-247.794zM277.072 886.62l49.826-278.84-40.208-7.186-49.826 278.84 40.208 7.186zM747.006 886.632l40.208-7.19-49.856-278.85-40.208 7.19 49.856 278.85z" />
<glyph unicode="&#xe913;" glyph-name="apple" d="M837.009 417.212c1.5-154.531 145.529-205.86 147.189-206.626-1.309-3.479-23.079-73.259-76.004-145.305-45.775-62.214-93.146-124.173-167.905-125.418-73.515-1.309-97.136 40.572-181.185 40.572-84.017 0-110.256-39.327-179.78-41.881-72.11-2.554-127.078 67.162-173.236 129.217-94.295 126.855-166.309 358.443-69.524 514.729 47.978 77.632 133.814 126.791 227.024 128.1 70.865 1.181 137.804-44.498 181.057-44.498 43.381 0 124.684 54.873 210.105 46.828 35.784-1.373 136.24-13.407 200.689-101.158-5.075-3.096-119.864-65.151-118.428-194.56zM536.024 724.581c-8.331 58.703 22.728 119.736 58.224 158.074 39.614 43.189 106.457 75.302 161.649 77.345 7.055-59.82-18.834-119.864-57.107-163.085-38.337-43.157-101.19-76.77-162.766-72.333z" />
<glyph unicode="&#xe914;" glyph-name="left" d="M771.869 9.835c15.831-16.066 15.831-41.879 0-57.828s-41.406-16.007-57.237 0l-462.501 467.108c-15.831 15.948-15.831 41.76 0 57.828l462.501 467.108c15.831 15.948 41.406 15.948 57.237 0 15.831-16.007 15.831-41.879 0-57.828l-421.803-438.224 421.803-438.165z" />
<glyph unicode="&#xe915;" glyph-name="code" d="M644.207 212.432l237.972 235.568-237.972 235.568 72.113 72.113 307.681-307.681-307.681-307.681zM379.793 212.432l-72.113-72.113-307.681 307.681 307.681 307.681 72.113-72.113-237.972-235.568z" />
<glyph unicode="&#xe916;" glyph-name="down" d="M950.164 707.869c16.066 15.831 41.879 15.831 57.828 0s16.007-41.406 0-57.237l-467.108-462.501c-15.948-15.831-41.76-15.831-57.828 0l-467.108 462.501c-15.948 15.831-15.948 41.406 0 57.237 16.007 15.831 41.879 15.831 57.828 0l438.224-421.803 438.165 421.803z" />
<glyph unicode="&#xe917;" glyph-name="right" d="M673.934 447.941l-421.803 438.283c-15.831 15.948-15.831 41.76 0 57.828 15.831 15.948 41.406 15.948 57.237 0l462.501-467.108c15.831-16.007 15.831-41.879 0-57.828l-462.501-467.108c-15.831-16.007-41.406-15.948-57.237 0-15.831 15.889-15.831 41.76 0 57.828l421.803 438.105z" />
<glyph unicode="&#xe918;" glyph-name="beta" d="M539.368 846.222v0c-62.869 0-111.591-18.125-146.169-54.375s-51.866-87.53-51.866-153.84v-702.007h68.062v239.16c21.594-11.199 43.324-19.083 65.192-23.651s47.698-6.852 77.492-6.852c65.055 0 115.623 16.577 151.704 49.733s54.121 80.53 54.121 142.126c0 108.16-51.524 168.429-154.574 180.807v3.537c85.556 15.030 128.333 65.868 128.333 152.514 0 53.933-17.015 96.224-51.046 126.874s-81.113 45.975-141.248 45.975zM0 960h1024v-1024h-1024v1024zM538.548 784.332c-43.188 0-75.51-12.673-96.967-38.018s-32.186-62.332-32.186-110.96v-392.116c25.421-14.441 49.133-24.388 71.137-29.84s44.759-8.178 68.267-8.178c46.741 0 81.934 11.052 105.578 33.155s35.466 56.29 35.466 102.56c0 46.27-12.984 81.488-38.951 105.655s-63.141 36.25-111.523 36.25h-45.921v62.774h37.721c42.368 0 74.622 10.831 96.762 32.492s33.211 52.68 33.211 93.056c0 36.25-10.66 64.174-31.981 83.772s-51.524 29.398-90.612 29.398z" />
<glyph unicode="&#xe919;" glyph-name="stack" d="M1024 640l-512 256-512-256 512-256 512 256zM512 811.030l342.058-171.030-342.058-171.030-342.058 171.030 342.058 171.030zM921.444 499.278l102.556-51.278-512-256-512 256 102.556 51.278 409.444-204.722zM921.444 307.278l102.556-51.278-512-256-512 256 102.556 51.278 409.444-204.722z" />
<glyph unicode="&#xe91a;" glyph-name="comments-o" d="M402.284 777.333q-87.429 0-163.429-29.714t-120.857-80.571-44.857-109.143q0-46.857 30.286-90.286t85.143-75.429l55.429-32-20-48q19.429 11.429 35.429 22.286l25.143 17.714 30.286-5.714q44.571-8 87.429-8 87.429 0 163.429 29.714t120.857 80.571 44.857 109.143-44.857 109.143-120.857 80.571-163.429 29.714zM402.284 850.476q109.143 0 202-39.143t146.571-106.571 53.714-146.857-53.714-146.857-146.571-106.571-202-39.143q-49.143 0-100.571 9.143-70.857-50.286-158.857-73.143-20.571-5.143-49.143-9.143h-1.714q-6.286 0-11.714 4.571t-6.571 12q-0.571 1.714-0.571 3.714t0.286 3.714 1.143 3.429l1.429 2.857t2 3.143 2.286 2.857 2.571 2.857 2.286 2.571q2.857 3.429 13.143 14.286t14.857 16.857 12.857 16.571 14.286 22 11.714 25.143q-70.857 41.143-111.429 101.143t-40.571 128q0 79.429 53.714 146.857t146.571 106.571 202 39.143zM871.999 182.474q5.714-13.714 11.714-25.143t14.286-22 12.857-16.571 14.857-16.857 13.143-14.286q0.571-0.571 2.286-2.571t2.571-2.857 2.286-2.857 2-3.143l1.429-2.857t1.143-3.429 0.286-3.714-0.571-3.714q-1.714-8-7.429-12.571t-12.571-4q-28.571 4-49.143 9.143-88 22.857-158.857 73.143-51.429-9.143-100.571-9.143-154.857 0-269.715 75.429 33.143-2.286 50.286-2.286 92 0 176.571 25.714t150.857 73.714q71.429 52.571 109.714 121.143t38.286 145.143q0 44-13.143 86.857 73.714-40.571 116.571-101.714t42.857-131.429q0-68.571-40.571-128.286t-111.429-100.857z" />
<glyph unicode="&#xe91c;" glyph-name="spinner5" d="M512 656.904c-32.964 0-59.686 26.724-59.686 59.686v179.060c0 32.964 26.722 59.686 59.686 59.686 32.962 0 59.688-26.722 59.688-59.686v-179.060c0-32.964-26.726-59.686-59.688-59.686zM512-36.956c-20.602 0-37.304 16.702-37.304 37.304v179.060c0 20.602 16.702 37.304 37.304 37.304 20.604 0 37.304-16.704 37.304-37.304v-179.060c0-20.602-16.7-37.304-37.304-37.304zM377.756 624.64c-19.34 0-38.146 10.034-48.512 27.988l-89.53 155.070c-15.452 26.764-6.282 60.986 20.482 76.438 26.762 15.45 60.986 6.284 76.438-20.482l89.53-155.072c15.452-26.764 6.282-60.986-20.482-76.438-8.81-5.084-18.432-7.504-27.926-7.504zM735.856 26.744c-11.602 0-22.886 6.022-29.108 16.792l-89.53 155.070c-9.27 16.056-3.77 36.592 12.29 45.864 16.056 9.264 36.59 3.77 45.864-12.292l89.532-155.068c9.27-16.058 3.768-36.592-12.292-45.864-5.286-3.048-11.060-4.502-16.756-4.502zM279.344 530.060c-8.86 0-17.838 2.256-26.064 7.006l-155.072 89.53c-24.978 14.422-33.538 46.362-19.116 71.342 14.42 24.978 46.364 33.538 71.342 19.116l155.070-89.53c24.98-14.422 33.538-46.362 19.116-71.34-9.668-16.756-27.226-26.124-45.276-26.124zM899.648 194.326c-5.064 0-10.196 1.29-14.894 4.004l-155.068 89.53c-14.274 8.24-19.164 26.494-10.924 40.768 8.242 14.276 26.496 19.166 40.766 10.924l155.070-89.532c14.274-8.24 19.164-26.492 10.924-40.766-5.53-9.574-15.562-14.928-25.874-14.928zM243.41 399.504h-179.060c-26.784 0-48.496 21.712-48.496 48.496s21.712 48.496 48.496 48.496h179.060c26.784 0 48.496-21.712 48.496-48.496s-21.712-48.496-48.496-48.496zM959.65 418.156c-0.002 0 0 0 0 0h-179.060c-16.482 0.002-29.844 13.364-29.844 29.844s13.364 29.844 29.844 29.844c0.002 0 0 0 0 0h179.060c16.482 0 29.844-13.362 29.844-29.844 0-16.48-13.364-29.844-29.844-29.844zM124.366 179.402c-15.472 0-30.518 8.028-38.81 22.39-12.362 21.41-5.026 48.79 16.384 61.148l155.072 89.532c21.41 12.368 48.79 5.028 61.15-16.384 12.362-21.412 5.026-48.79-16.384-61.15l-155.072-89.53c-7.050-4.070-14.748-6.006-22.34-6.006zM744.632 552.448c-10.314 0-20.346 5.352-25.874 14.926-8.24 14.274-3.35 32.526 10.924 40.768l155.070 89.528c14.272 8.236 32.526 3.352 40.768-10.922 8.24-14.274 3.35-32.526-10.924-40.768l-155.070-89.528c-4.7-2.714-9.83-4.004-14.894-4.004zM288.136 19.284c-6.962 0-14.016 1.774-20.48 5.504-19.626 11.332-26.35 36.428-15.020 56.054l89.53 155.070c11.33 19.628 36.426 26.352 56.054 15.022 19.626-11.332 26.35-36.43 15.020-56.054l-89.53-155.072c-7.598-13.166-21.392-20.524-35.574-20.524zM646.266 650.758c-5.062 0-10.196 1.29-14.894 4.002-14.274 8.242-19.164 26.494-10.924 40.766l89.534 155.070c8.24 14.274 26.492 19.166 40.766 10.922 14.274-8.242 19.164-26.494 10.924-40.766l-89.532-155.070c-5.53-9.57-15.56-14.924-25.874-14.924z" />
<glyph unicode="&#xe91f;" glyph-name="plus" d="M512 959.999q21.2 0 36.2-15t15-36.2v-409.599h409.599q21.2 0 36.2-15t15-36.2-15-36.2-36.2-15h-409.599v-409.599q0-21.2-15-36.2t-36.2-15-36.2 15-15 36.2v409.599h-409.599q-21.2 0-36.2 15t-15 36.2 15 36.2 36.2 15h409.599v409.599q0 21.2 15 36.2t36.2 15z" />
<glyph unicode="&#xe920;" glyph-name="edit" d="M941.004 877c-82.941 82.999-145.234 70.575-145.234 70.575l-737.73-737.673-58.094-273.902 273.96 58.094 737.73 737.559c-0.057 0 12.424 62.293-70.633 145.348zM257.629 26.994l-93.41-20.131c-8.973 16.853-19.844 33.706-39.688 53.607-19.901 19.901-36.754 30.658-53.607 39.745l20.131 93.353 27.034 26.976c0 0 50.789-1.036 108.192-58.438 57.345-57.288 58.438-108.192 58.438-108.192l-27.091-26.919z" />
<glyph unicode="&#xe921;" glyph-name="user" d="M511.999 393.143c145.714 0 256 132.571 256 308 0 140-117.143 258.857-256 258.857s-256-118.857-256-258.857c0-175.429 110.286-308 256-308v0zM511.999 871.429c88.571 0 166.857-80 166.857-170.286 0-125.143-71.429-219.429-166.857-219.429s-166.857 94.286-166.857 219.429c0 90.286 78.286 170.286 166.857 170.286v0zM128.57-64l8 85.143c17.714 171.429 213.143 209.143 375.429 209.143s357.714-37.714 375.429-208.571l8-85.714h91.429l-8 94.286c-20 186.857-184.571 289.714-466.857 289.714s-446.857-102.857-466.857-290.286l-8-93.714h91.429z" />
<glyph unicode="&#xe922;" glyph-name="paper-plane" horiz-adv-x="1025" d="M1007.401 953.076q18.833-13.697 15.41-36.525l-146.102-876.612q-2.853-16.55-18.263-25.682-7.99-4.565-17.692-4.565-6.278 0-13.697 2.853l-258.532 105.581-138.112-168.359q-10.273-13.126-27.965-13.126-7.42 0-12.555 2.283-10.843 3.995-17.407 13.412t-6.563 20.831v199.179l493.094 604.383-610.090-527.907-225.431 92.455q-21.116 7.99-22.828 31.39-1.142 22.828 18.263 33.672l949.663 547.882q8.56 5.137 18.263 5.137 11.415 0 20.545-6.278z" />
<glyph unicode="&#xe924;" glyph-name="bitbucket-logo" horiz-adv-x="4096" d="M911.377 951.223c0 2.926-2.998 2.926-5.996 2.926h-53.963c-2.998 0-5.996-2.926-5.996-2.926l-68.953-213.577v-5.851c0-2.926 2.998-2.926 5.996-2.926h38.973c2.998 0 5.996 2.926 5.996 2.926l47.967 157.989c0 0 0 2.926 5.996 2.926 2.998 0 5.996-2.926 5.996-2.926l20.986-73.143h-29.98c-2.998 0-5.996-2.926-5.996-2.926l-8.994-29.257v-5.851c0 0 2.998-2.926 5.996-2.926h50.965l11.992-40.96c0-2.926 2.998-2.926 5.996-2.926h38.973c2.998 0 2.998 0 5.996 2.926v5.851l-71.951 210.651zM1076.265 763.977c0 2.926 0 2.926-2.998 2.926h-5.996c-5.996-2.926-11.992-2.926-17.988-2.926-8.994 0-11.992 2.926-11.992 11.703v84.846h32.977c2.998 0 5.996 2.926 5.996 5.851v23.406c0 2.926-2.998 5.851-5.996 5.851h-32.977v40.96c0 2.926 0 2.926-2.998 2.926 0 0-2.998 2.926-5.996 0l-35.975-5.851c-2.998 0-5.996-2.926-5.996-5.851v-35.109h-17.988c-2.998 0-5.996-2.926-5.996-5.851v-26.331c0-2.926 2.998-5.851 5.996-5.851h17.988v-87.771c0-29.257 14.99-43.886 47.967-43.886 8.994 0 23.984 2.926 32.977 5.851 11.992 5.851 11.992 5.851 11.992 8.777l-2.998 26.331zM1139.222 960h-35.975c-2.998 0-5.996-2.926-5.996-5.851v-219.429c0-2.926 2.998-5.851 5.996-5.851h35.975c2.998 0 5.996 2.926 5.996 5.851v219.429c0 2.926-2.998 5.851-5.996 5.851zM1229.16 898.56c-17.988 0-38.973-2.926-53.963-5.851-2.998 0-5.996-2.926-2.998-5.851l2.998-23.406c0-2.926 0-2.926 2.998-2.926h2.998c14.99 2.926 29.98 2.926 41.971 2.926 23.984 0 29.98-5.851 29.98-20.48v-14.629h-35.975c-35.975 0-50.965-14.629-50.965-46.811s17.988-49.737 44.969-49.737c17.988 0 32.977 5.851 47.967 11.703v-5.851c0-2.926 2.998-2.926 5.996-2.926h26.982c2.998 0 5.996 2.926 5.996 5.851v99.474c0 43.886-17.988 58.514-68.953 58.514zM1250.146 790.309v-20.48c-5.996-2.926-14.99-5.851-29.98-5.851-11.992 0-14.99 2.926-14.99 14.629 0 8.777 2.998 14.629 14.99 14.629h29.98v-2.926zM1385.054 834.194c-20.986 5.851-20.986 5.851-20.986 17.554 0 8.777 0 11.703 17.988 11.703 11.992 0 29.98-2.926 41.971-2.926h2.998l2.998 2.926 2.998 26.331c0 2.926-2.998 5.851-5.996 5.851-11.992 2.926-32.977 5.851-47.967 5.851-53.963 0-62.957-20.48-62.957-49.737 0-32.183 5.996-43.886 47.967-52.663 26.982-5.851 26.982-11.703 26.982-17.554 0-8.777 0-14.629-17.988-14.629-14.99 0-29.98 2.926-44.969 5.851h-5.996l-2.998-2.926-5.996-23.406c0-2.926 0-5.851 2.998-5.851 20.986-8.777 41.971-14.629 59.959-14.629 50.965 0 62.957 20.48 62.957 52.663-2.998 35.109-8.994 43.886-53.963 55.589zM1519.962 834.194c-20.986 5.851-20.986 5.851-20.986 17.554 0 8.777 0 11.703 17.988 11.703 11.992 0 29.98-2.926 41.971-2.926h5.996l2.998 2.926 2.998 26.331c0 2.926-2.998 5.851-2.998 5.851-11.992 2.926-32.977 5.851-47.967 5.851-53.963 0-62.957-20.48-62.957-49.737 0-32.183 5.996-43.886 47.967-52.663 26.982-5.851 26.982-11.703 26.982-17.554 0-8.777 0-14.629-17.988-14.629-14.99 0-29.98 2.926-44.969 5.851h-5.996l-2.998-2.926-5.996-23.406c0-2.926 0-5.851 2.998-5.851 11.992-8.777 35.975-14.629 50.965-14.629 50.965 0 62.957 20.48 62.957 52.663 0 35.109-5.996 43.886-50.965 55.589zM1630.886 960h-35.975c-2.998 0-5.996-2.926-5.996-5.851v-29.257c0-2.926 2.998-5.851 5.996-5.851h35.975c2.998 0 5.996 2.926 5.996 5.851v29.257c0 2.926-2.998 5.851-5.996 5.851zM1630.886 895.634h-35.975c-2.998 0-5.996-2.926-5.996-5.851v-155.063c0-2.926 2.998-5.851 5.996-5.851h35.975c2.998 0 5.996 2.926 5.996 5.851v155.063c0 2.926-2.998 5.851-5.996 5.851zM1720.825 898.56c-17.988 0-38.973-2.926-53.963-5.851-2.998 0-5.996-2.926-2.998-5.851l2.998-23.406c0-2.926 0-2.926 2.998-2.926h2.998c14.99 2.926 29.98 2.926 41.971 2.926 23.984 0 29.98-5.851 29.98-20.48v-14.629h-35.975c-35.975 0-50.965-14.629-50.965-46.811s17.988-49.737 44.969-49.737c17.988 0 32.977 5.851 47.967 11.703l2.998-5.851c0-2.926 2.998-2.926 5.996-2.926h26.982c2.998 0 5.996 2.926 5.996 5.851v99.474c-2.998 43.886-20.986 58.514-71.951 58.514zM1744.808 790.309v-20.48c-5.996-2.926-14.99-5.851-29.98-5.851-11.992 0-14.99 2.926-14.99 14.629 0 8.777 2.998 14.629 14.99 14.629h29.98v-2.926zM1918.689 898.56c-17.988 0-41.971-5.851-65.955-14.629l-2.998 8.777c0 2.926-2.998 2.926-5.996 2.926h-26.982c-2.998 0-5.996-2.926-5.996-5.851v-155.063c0-2.926 2.998-5.851 5.996-5.851h35.975c2.998 0 5.996 2.926 5.996 5.851v108.251c11.992 5.851 29.98 11.703 41.971 11.703 8.994 0 11.992-2.926 11.992-11.703v-108.251c0-2.926 2.998-5.851 5.996-5.851h35.975c2.998 0 5.996 2.926 5.996 5.851v114.103c-2.998 35.109-14.99 49.737-41.971 49.737zM2017.622 421.669c-44.969 0-92.937-11.703-122.916-23.406v166.766c0 8.777-5.996 14.629-14.99 14.629h-92.937c-8.994 0-14.99-5.851-14.99-14.629v-579.291c0-8.777 5.996-14.629 11.992-14.629 56.961-8.777 125.914-14.629 164.887-14.629 173.881 0 209.857 73.143 209.857 181.394v125.806c0 105.326-47.967 157.989-140.904 157.989zM1954.665 64.731c-23.984 0-41.971 0-59.959 2.926v225.28c26.982 11.703 62.957 23.406 89.939 23.406 35.975 0 50.965-14.629 50.965-46.811v-131.657c0-49.737-11.992-73.143-80.945-73.143zM2587.233 412.891h-92.936c-8.994 0-14.99-5.851-14.99-14.629v-286.72c-32.977-17.554-80.945-35.109-107.926-35.109-20.986 0-29.98 8.777-29.98 29.257v292.571c0 8.777-5.996 14.629-14.99 14.629h-92.937c-8.994 0-14.99-5.851-14.99-14.629v-304.274c0-87.771 35.975-134.583 107.926-134.583 47.967 0 116.92 17.554 173.881 43.886l5.996-23.406c2.998-5.851 8.994-11.703 14.99-11.703h68.953c8.994 0 14.99 5.851 14.99 14.629v415.451c-2.998 5.851-8.994 14.629-17.988 14.629zM2958.979 61.806c0 2.926-2.998 8.777-5.996 11.703s-8.994 2.926-11.992 2.926c-26.982-5.851-53.963-8.777-80.945-8.777-59.959 0-74.949 14.629-74.949 64.366v119.954c0 49.737 17.988 64.366 74.949 64.366 14.99 0 47.967-2.926 80.945-8.777 2.998 0 8.994 0 11.992 2.926s5.996 5.851 5.996 11.703l11.992 70.217c0 8.777-2.998 14.629-11.992 17.554-35.975 11.703-77.947 14.629-101.93 14.629-140.904 0-197.865-49.737-197.865-172.617v-117.029c0-122.88 56.961-172.617 197.865-172.617 32.977 0 71.951 5.851 101.93 14.629 8.994 2.926 11.992 8.777 11.992 17.554l-11.992 67.291zM3600.54 421.669c-125.914 0-188.871-61.44-188.871-175.543v-114.103c0-117.029 62.957-172.617 194.867-172.617 53.963 0 110.924 8.777 158.891 26.331 5.996 2.926 11.992 8.777 8.994 17.554l-14.99 64.366c0 2.926-2.998 8.777-5.996 8.777-2.998 2.926-8.994 2.926-11.992 2.926-41.971-11.703-83.943-17.554-122.916-17.554-68.953 0-80.945 20.48-80.945 67.291v14.629h230.842c8.994 0 14.99 5.851 14.99 14.629v81.92c-2.998 122.88-59.959 181.394-182.875 181.394zM3534.586 243.2v14.629c0 43.886 20.986 61.44 65.955 61.44 50.965 0 59.959-23.406 59.959-61.44v-14.629h-125.914zM1367.066 412.891h-92.937c-8.994 0-14.99-5.851-14.99-14.629v-415.451c0-8.777 5.996-14.629 14.99-14.629h92.937c8.994 0 14.99 5.851 14.99 14.629v415.451c0 8.777-5.996 14.629-14.99 14.629zM1367.066 582.583h-92.937c-8.994 0-14.99-5.851-14.99-14.629v-78.994c0-8.777 5.996-14.629 14.99-14.629h92.937c8.994 0 14.99 5.851 14.99 14.629v78.994c0 5.851-5.996 14.629-14.99 14.629zM1133.226 284.16c38.973 20.48 53.963 49.737 53.963 93.623v61.44c0 87.771-53.963 131.657-167.885 131.657h-227.844c-8.994 0-14.99-5.851-14.99-14.629v-573.44c0-8.777 5.996-14.629 14.99-14.629h245.832c107.926 0 170.883 52.663 170.883 143.36v61.44c0 52.663-26.982 93.623-74.949 111.177zM902.384 465.554h101.93c47.967 0 53.963-20.48 53.963-40.96v-52.663c0-35.109-14.99-49.737-53.963-49.737h-20.986c-8.994 0-14.99-5.851-14.99-14.629v-73.143c0-8.777 5.996-14.629 14.99-14.629h38.973c41.971 0 56.961-14.629 56.961-52.663v-43.886c0-38.034-17.988-49.737-65.955-49.737h-110.924v392.046zM1714.829 55.954c0 2.926-2.998 8.777-5.996 11.703s-8.994 2.926-11.992 2.926c-14.99-2.926-32.977-5.851-44.969-5.851-23.984 0-32.977 8.777-32.977 32.183v219.429h89.939c8.994 0 14.99 5.851 14.99 14.629v67.291c0 8.777-5.996 14.629-14.99 14.629h-89.939v105.326c0 5.851-2.998 8.777-5.996 11.703s-8.994 2.926-11.992 2.926l-92.937-11.703c-8.994 0-14.99-8.777-14.99-14.629v-93.623h-50.965c-8.994 0-14.99-5.851-14.99-14.629v-67.291c0-8.777 5.996-14.629 14.99-14.629h50.965v-234.057c0-78.994 41.971-119.954 128.912-119.954 23.984 0 65.955 5.851 92.937 14.629 5.996 2.926 11.992 8.777 8.994 17.554l-8.994 61.44zM4086.209 55.954c0 2.926-2.998 8.777-5.996 11.703s-8.994 2.926-11.992 2.926c-17.988-2.926-32.977-5.851-44.969-5.851-23.984 0-32.977 8.777-32.977 32.183v219.429h89.939c8.994 0 14.99 5.851 14.99 14.629v67.291c0 8.777-5.996 14.629-14.99 14.629h-89.939v105.326c0 5.851-2.998 8.777-5.996 11.703s-8.994 2.926-11.992 2.926l-92.937-11.703c-8.994 0-14.99-8.777-14.99-14.629v-93.623h-50.965c-8.994 0-14.99-5.851-14.99-14.629v-67.291c0-8.777 5.996-14.629 14.99-14.629h50.965v-234.057c0-78.994 41.971-119.954 128.912-119.954 23.984 0 65.955 5.851 92.937 14.629 5.996 2.926 11.992 8.777 8.994 17.554l-8.994 61.44zM3393.682-5.486l-122.916 198.949 119.918 196.023c2.998 5.851 2.998 11.703 0 14.629-2.998 5.851-8.994 8.777-14.99 8.777h-101.93c-5.996 0-11.992-2.926-14.99-8.777l-113.922-193.097v356.937c0 8.777-5.996 14.629-14.99 14.629h-92.937c-8.994 0-14.99-5.851-14.99-14.629v-582.217c0-8.777 5.996-14.629 14.99-14.629h92.937c8.994 0 14.99 5.851 14.99 14.629v190.171l119.918-198.949c2.998-5.851 8.994-8.777 11.992-8.777h101.93c8.994 0 14.99 5.851 14.99 14.629 2.998 5.851 2.998 8.777 0 11.703zM305.791 623.543c-167.885 0-305.791-43.886-305.791-99.474 0-14.629 35.975-222.354 50.965-304.274 5.996-38.034 104.928-90.697 254.826-90.697s245.832 52.663 254.826 90.697c14.99 81.92 50.965 289.646 50.965 304.274-2.998 55.589-137.906 99.474-305.791 99.474zM305.791 196.389c-53.963 0-95.934 40.96-95.934 93.623s41.971 93.623 95.934 93.623c53.963 0 95.934-40.96 95.934-93.623 0-49.737-41.971-93.623-95.934-93.623v0zM305.791 494.811c-107.926 0-194.867 17.554-194.867 40.96s86.941 40.96 194.867 40.96c107.926 0 194.867-17.554 194.867-40.96s-86.941-40.96-194.867-40.96zM524.642 140.8c-5.996 0-8.994-2.926-8.994-2.926s-74.949-58.514-209.857-58.514c-134.908 0-209.857 58.514-209.857 58.514s-5.996 2.926-8.994 2.926c-5.996 0-11.992-2.926-11.992-11.703v-2.926c11.992-61.44 20.986-105.326 20.986-111.177 8.994-43.886 98.932-78.994 206.859-78.994s197.865 35.109 206.859 78.994c0 5.851 8.994 49.737 20.986 111.177v2.926c2.998 5.851 0 11.703-5.996 11.703zM305.791 246.126c26.492 0 47.967 20.958 47.967 46.811s-21.476 46.811-47.967 46.811c-26.492 0-47.967-20.958-47.967-46.811s21.476-46.811 47.967-46.811z" />
<glyph unicode="&#xe925;" glyph-name="github-logo" horiz-adv-x="3789" d="M729.738 521.721h-318.381c-8.213 0-14.879-6.662-14.879-14.878v-155.562c0-8.208 6.666-14.894 14.879-14.894h124.202v-193.282c0 0-27.889-9.501-104.991-9.501-90.964 0-218.037 33.218-218.037 312.481 0 279.311 132.32 316.061 256.545 316.061 107.531 0 153.857-18.915 183.332-28.038 9.262-2.831 17.83 6.386 17.83 14.594l35.518 150.311c0 3.848-1.302 8.476-5.688 11.614-11.968 8.539-85 49.373-269.499 49.373-212.546 0-430.567-90.373-430.567-524.812 0-434.447 249.618-499.188 459.963-499.188 174.165 0 279.818 74.375 279.818 74.375 4.355 2.405 4.828 8.492 4.828 11.275v485.192c0 8.216-6.659 14.878-14.871 14.878zM2370.539 907.949c0 8.279-6.564 14.957-14.777 14.957h-179.269c-8.189 0-14.848-6.678-14.848-14.957 0-0.039 0.047-346.235 0.047-346.235h-279.432v346.235c0 8.279-6.595 14.957-14.792 14.957h-179.253c-8.158 0-14.808-6.678-14.808-14.957v-937.498c0-8.271 6.651-15.004 14.808-15.004h179.253c8.197 0 14.792 6.733 14.792 15.004v401.001h279.432c0 0-0.481-400.97-0.481-401.001 0-8.271 6.651-15.004 14.848-15.004h179.687c8.213 0 14.777 6.733 14.792 15.004v937.498zM1068.024 784.93c0 64.512-51.754 116.636-115.602 116.636-63.785 0-115.579-52.125-115.579-116.636 0-64.448 51.793-116.723 115.579-116.723 63.848 0 115.602 52.275 115.602 116.723zM1055.203 168.209v432.752c0 8.216-6.635 14.933-14.832 14.933h-178.701c-8.197 0-15.534-8.452-15.534-16.66v-620.011c0-18.213 11.361-23.638 26.066-23.638h161.005c17.664 0 21.995 8.673 21.995 23.93v188.693zM3051.841 614.487h-177.896c-8.158 0-14.8-6.726-14.8-14.989v-459.686c0 0-45.19-33.052-109.338-33.052-64.14 0-81.165 29.094-81.165 91.863v400.875c0 8.263-6.627 14.989-14.792 14.989h-180.547c-8.15 0-14.824-6.726-14.824-14.989v-431.231c0-186.438 103.973-232.051 247.007-232.051 117.338 0 211.947 64.78 211.947 64.78s4.505-34.14 6.54-38.185c2.043-4.037 7.353-8.121 13.088-8.121l114.861 0.512c8.15 0 14.824 6.726 14.824 14.965l-0.055 629.33c0 8.263-6.651 14.989-14.848 14.989zM3467.886 107.335c-61.702 1.877-103.555 29.859-103.555 29.859v296.885c0 0 41.285 25.294 91.942 29.819 64.061 5.732 125.795-13.609 125.795-166.333 0-161.050-27.865-192.833-114.182-190.231zM3538.054 635.545c-101.038 0-169.762-45.052-169.762-45.052v317.456c0 8.279-6.619 14.957-14.792 14.957h-179.774c-8.173 0-14.816-6.678-14.816-14.957v-937.498c0-8.271 6.643-15.004 14.84-15.004h124.722c5.617 0 9.87 2.902 13.017 7.963 3.093 5.038 7.574 43.231 7.574 43.231s73.505-69.629 212.672-69.629c163.372 0 257.066 82.819 257.066 371.797s-149.637 326.736-250.746 326.736zM1570.428 615.981h-134.473c0 0-0.197 177.505-0.197 177.545 0 6.726-3.471 10.076-11.242 10.076h-183.253c-7.124 0-10.942-3.13-10.942-9.974v-183.466c0 0-91.84-22.156-98.048-23.945-6.177-1.798-10.729-7.498-10.729-14.295v-115.288c0-8.295 6.619-14.981 14.816-14.981h93.962v-277.371c0-206.016 144.595-226.248 242.163-226.248 44.583 0 97.914 14.303 106.719 17.551 5.325 1.955 8.426 7.467 8.426 13.443l0.142 126.831c0 8.271-6.99 14.973-14.863 14.973-7.834 0-27.881-3.193-48.519-3.193-66.049 0-88.431 30.695-88.431 70.425 0 39.699-0.008 263.589-0.008 263.589h134.481c8.197 0 14.84 6.686 14.84 14.981v144.406c0 8.279-6.643 14.941-14.84 14.941z" />
<glyph unicode="&#xe926;" glyph-name="nodejs" horiz-adv-x="925" d="M421.123 945.515c25.063 14.419 57.714 14.485 82.755 0 125.991-71.551 252.025-142.993 377.994-214.588 23.694-13.414 39.54-39.916 39.301-67.356v-430.487c0.174-28.577-17.238-55.712-42.236-68.82-125.578-71.158-251.091-142.403-376.647-213.561-25.585-14.703-58.887-13.567-83.668 2.338-37.649 21.935-75.364 43.761-113.014 65.674-7.695 4.61-16.369 8.28-21.803 15.774 4.804 6.51 13.39 7.319 20.368 10.159 15.716 5.025 30.15 13.087 44.584 20.909 3.652 2.512 8.109 1.552 11.608-0.7 32.193-18.549 64.104-37.644 96.406-56.018 6.891-3.998 13.868 1.31 19.76 4.61 123.23 70 246.612 139.738 369.82 209.76 4.565 2.206 7.086 7.078 6.716 12.104 0.087 142.010 0.022 284.041 0.044 426.051 0.522 5.702-2.76 10.946-7.89 13.283-125.143 70.83-250.221 141.77-375.342 212.622-4.478 3.058-10.26 3.080-14.738 0.022-125.121-70.874-250.178-141.879-375.298-212.709-5.108-2.338-8.543-7.494-7.934-13.218 0.022-142.010 0-284.041 0-426.073-0.434-5.025 2.261-9.788 6.804-11.951 33.389-19.029 66.821-37.928 100.232-56.892 18.825-10.181 41.932-16.233 62.669-8.433 18.303 6.598 31.128 25.365 30.78 44.897 0.174 141.18-0.087 282.381 0.131 423.539-0.456 6.27 5.456 11.448 11.521 10.858 16.043 0.11 32.106 0.218 48.148-0.044 6.696 0.152 11.303-6.598 10.477-12.912-0.065-142.075 0.174-284.151-0.109-426.226 0.044-37.862-15.434-79.067-50.279-97.594-42.931-22.351-95.993-17.609-138.403 3.824-36.714 18.417-71.755 40.156-107.818 59.884-25.063 13.043-42.388 40.287-42.214 68.842v430.487c-0.261 28.009 16.216 54.99 40.649 68.209 125.556 71.223 251.091 142.49 376.625 213.736zM530.659 647.316c54.757 3.54 113.383 2.098 162.662-25.015 38.149-20.777 59.3-64.385 59.974-106.988-1.065-5.746-7.043-8.914-12.499-8.52-15.89 0.022-31.781-0.218-47.671 0.11-6.738-0.262-10.652 5.986-11.499 11.972-4.565 20.384-15.629 40.571-34.715 50.402-29.302 14.747-63.278 14.004-95.232 13.699-23.324-1.246-48.409-3.278-68.169-17.063-15.173-10.443-19.782-31.526-14.369-48.502 5.108-12.191 19.107-16.123 30.563-19.751 65.996-17.347 135.924-15.621 200.66-38.452 26.802-9.307 53.018-27.397 62.191-55.602 11.999-37.796 6.738-82.977-20.020-113.324-21.694-24.971-53.3-38.561-84.82-45.946-41.932-9.394-85.45-9.635-128.034-5.462-40.041 4.588-81.712 15.162-112.622 42.581-26.433 23.071-39.345 59.010-38.063 93.704 0.304 5.855 6.109 9.941 11.695 9.46 15.999 0.132 31.998 0.174 47.997-0.022 6.391 0.458 11.13-5.090 11.456-11.142 2.957-19.423 10.216-39.806 27.063-51.32 32.519-21.083 73.321-19.641 110.557-20.231 30.846 1.376 65.473 1.792 90.645 22.285 13.281 11.688 17.216 31.242 13.629 48.064-3.891 14.201-18.673 20.821-31.367 25.147-65.148 20.711-135.86 13.196-200.377 36.617-26.194 9.307-51.518 26.895-61.582 53.942-14.043 38.277-7.608 85.621 21.955 114.941 28.824 29.167 70.43 40.396 109.992 44.416z" />
<glyph unicode="&#xe927;" glyph-name="rails" horiz-adv-x="816" d="M43.171 112.684v-176.684h44.981v46.018l40.936-41.012h69.017l-54.745 54.846c0 0 39.383 0.641 42.36 57.699 0 52.351-39.429 59.134-84.964 59.134h-57.585zM90.291 64.759h38.797v-31.475h-38.797v31.475zM284.98 111.967c-24.631 0.145-58.788-2.144-58.788-48.642v-122.799h46.169v30.048h44.744v-29.33h46.413v128.759c0 40.387-44.79 41.966-68.781 41.966-3.001 0-6.237-0.023-9.757 0zM273.076 67.621h43.32v-48.405h-43.32v48.405zM409.777 111.853h47.768v-169.023h-47.768v169.023zM507.574 109.609v-169.023h114.956v44.873h-67.928v124.898l-47.030-0.748zM774.822 111.105v-45.621h-76.892v-16.451h32.841c17.159 0 53 0.748 53-53.106 0-53.846-24.631-56.837-74.645-56.837h-60.464v41.141h69.421c20.898 0 22.056 6.821 22.056 12.757s-10.686 8.706-32.422 8.706c-21.736 0-62.041 10.698-62.041 52.58s20.898 57.592 62.703 57.592c41.804 0 66.443-0.763 66.443-0.763zM89.232 159.757h397.147c0 0-88.087 200.437-65.696 384.415 22.399 183.978 167.218 267.75 249.335 276.722 82.109 8.981 126.907-41.882 126.907-41.882l17.921 26.926c0 0-117.95 119.664-267.256 106.197-149.306-13.459-252.32-112.179-316.516-231.843-64.203-119.672-101.53-203.427-126.907-329.073s-14.935-191.463-14.935-191.463zM10.109 360.193l77.638-5.982-13.442-77.774-73.152 8.973 8.957 74.783zM132.537 524.73l20.906 58.332-68.682 26.926-22.391-62.819 70.166-22.44zM229.581 725.166l40.312 47.857-52.254 34.404-41.804-46.361 53.747-35.9zM335.581 910.64l35.833-43.377 49.268 28.422-35.833 40.387-49.268-25.432zM510.271 959.999l8.957-43.385 61.218 1.496-5.978 38.891-64.196 2.999zM717.801 913.631l-1.493-26.919 41.804-22.433 8.957 13.459-49.268 35.892zM708.837 798.454v-22.433l40.312-4.486v17.954l-40.312 8.966zM580.446 779.012l19.405-35.892 28.37 22.433-5.971 23.936-41.804-10.477zM519.22 732.636l29.863-44.873-17.921-31.406-43.297 47.857 31.356 28.422zM459.51 608.493l-19.413-38.891 50.761-43.385 11.942 49.367-43.29 32.909zM438.604 472.38l-2.986-52.351 62.703-26.926-2.986 49.367-56.732 29.91zM456.516 286.898l14.935-53.854 79.123-4.486-28.37 58.34h-65.688z" />
<glyph unicode="&#xe928;" glyph-name="osx" d="M512 960c-282.778 0-512-229.239-512-512 0-282.778 229.222-512 512-512s512 229.222 512 512c0 282.761-229.222 512-512 512v0zM560.779 417.26l195.908-285.891h-55.408l-189.279 276.185-189.277-276.187h-55.408l216.983 316.633-216.986 316.628h55.408l189.279-276.183 189.277 276.185h55.408l-216.983-316.631 21.077-30.74z" />
<glyph unicode="&#xe92e;" glyph-name="check" d="M972.8 806.4q22 0 36.6-14.6t14.6-36.6q0-21.6-14.8-36.4l-614.401-614.401q-14.8-14.8-36.4-14.8t-36.4 14.8l-307.2 307.2q-14.8 14.8-14.8 36.4 0 22 14.6 36.6t36.6 14.6q21.6 0 36.4-14.8l270.801-271.2 578.001 578.401q14.8 14.8 36.4 14.8z" />
<glyph unicode="&#xe92f;" glyph-name="power" d="M842.667 837.333q181.333-154.667 181.333-389.333 0-213.333-149.333-362.667t-362.667-149.333-362.667 149.333-149.333 362.667q0 234.667 181.333 389.333l80-80q-146.667-120-146.667-309.333 0-165.333 116-281.333t281.333-116 281.333 116 116 281.333q0 189.333-146.667 306.667zM568 960v-568h-112v568h112z" />
<glyph unicode="&#xe930;" glyph-name="blocked" d="M862.437 97.563c-193.532-193.563-507.341-193.563-700.874 0-193.563 193.532-193.563 507.341 0 700.874 193.532 193.563 507.341 193.563 700.874 0 193.563-193.563 193.563-507.341 0-700.874zM249.193 185.161c130.188-130.188 332.765-143.229 477.915-39.865l-517.78 517.78c-103.364-145.149-90.323-347.696 39.865-477.915zM774.839 710.807c-130.188 130.188-332.765 143.229-477.884 39.865l517.78-517.749c103.332 145.118 90.292 347.696-39.896 477.884z" />
<glyph unicode="&#xe932;" glyph-name="loop" d="M889.68 793.68c-93.608 102.216-228.154 166.32-377.68 166.32-282.77 0-512-229.23-512-512h96c0 229.75 186.25 416 416 416 123.020 0 233.542-53.418 309.696-138.306l-149.696-149.694h352v352l-134.32-134.32zM928 448c0-229.75-186.25-416-416-416-123.020 0-233.542 53.418-309.694 138.306l149.694 149.694h-352v-352l134.32 134.32c93.608-102.216 228.154-166.32 377.68-166.32 282.77 0 512 229.23 512 512h-96z" />
<glyph unicode="&#xe933;" glyph-name="git" d="M1004.692 493.606l-447.096 447.080c-25.738 25.754-67.496 25.754-93.268 0l-103.882-103.876 78.17-78.17c12.532 5.996 26.564 9.36 41.384 9.36 53.020 0 96-42.98 96-96 0-14.82-3.364-28.854-9.362-41.386l127.976-127.974c12.532 5.996 26.566 9.36 41.386 9.36 53.020 0 96-42.98 96-96s-42.98-96-96-96-96 42.98-96 96c0 14.82 3.364 28.854 9.362 41.386l-127.976 127.974c-3.042-1.456-6.176-2.742-9.384-3.876v-266.968c37.282-13.182 64-48.718 64-90.516 0-53.020-42.98-96-96-96s-96 42.98-96 96c0 41.796 26.718 77.334 64 90.516v266.968c-37.282 13.18-64 48.72-64 90.516 0 14.82 3.364 28.852 9.36 41.384l-78.17 78.17-295.892-295.876c-25.75-25.776-25.75-67.534 0-93.288l447.12-447.080c25.738-25.75 67.484-25.75 93.268 0l445.006 445.006c25.758 25.762 25.758 67.54-0.002 93.29z" />
<glyph unicode="&#xe934;" glyph-name="hand-pointer-o" horiz-adv-x="952" d="M365.714 886.856q-30.286 0-51.714-21.43t-21.428-51.714v-512l-86.286 115.428q-23.43 30.856-61.144 30.856-29.714 0-50.856-21.714t-21.144-51.428q0-24.572 14.856-44l219.428-292.572q21.714-29.144 58.286-29.144h410.286q12.572 0 22.572 7.714t12.856 19.714l52.572 210.286q13.714 54.856 13.714 110.856v124q0 23.428-16 40.572t-38.856 17.144-38.856-16-16-38.856h-18.286v34.856q0 27.428-18.286 46.572t-45.714 19.144q-26.286 0-45.144-18.856t-18.856-45.144v-36.572h-18.286v51.428q0 31.428-21.144 54t-52 22.572q-30.286 0-51.714-21.428t-21.428-51.714v-54.858h-18.286v325.714q0 31.43-21.144 54t-52 22.57zM365.714 960q61.142 0 103.714-44.286t42.572-105.43v-125.714q12.572 1.142 18.286 1.142 56.572 0 98.856-39.43 26.856 12 56.572 12 64.572 0 105.144-49.714 15.428 4 32 4 53.714 0 90.856-38.57t37.144-92.286v-124q0-66.286-16-128.572l-52.572-210.286q-9.144-36.572-38.856-59.714t-67.428-23.144h-410.286q-34.286 0-65.43 15.714t-51.714 42.572l-219.43 292.572q-29.144 38.856-29.144 88 0 60 42.57 103.144t102.57 43.144q40.57 0 74.286-20v312.572q0 60.57 42.858 103.43t103.428 42.856zM438.858 155.428v219.428h-18.286v-219.428h18.286zM585.144 155.428v219.428h-18.286v-219.428h18.286zM731.428 155.428v219.428h-18.286v-219.428h18.286z" />
<glyph unicode="&#xe935;" glyph-name="database" d="M512 960c-282.77 0-512-71.634-512-160v-128c0-88.366 229.23-160 512-160s512 71.634 512 160v128c0 88.366-229.23 160-512 160zM512 416c-282.77 0-512 71.634-512 160v-192c0-88.366 229.23-160 512-160s512 71.634 512 160v192c0-88.366-229.23-160-512-160zM512 128c-282.77 0-512 71.634-512 160v-192c0-88.366 229.23-160 512-160s512 71.634 512 160v192c0-88.366-229.23-160-512-160z" />
<glyph unicode="&#xe936;" glyph-name="terminal" horiz-adv-x="958" d="M334.286 398.286l-266.286-266.286q-5.714-5.714-13.144-5.714t-13.144 5.714l-28.572 28.572q-5.714 5.714-5.714 13.144t5.714 13.144l224.57 224.572-224.57 224.572q-5.714 5.714-5.714 13.144t5.714 13.144l28.57 28.572q5.714 5.714 13.144 5.714t13.144-5.714l266.286-266.286q5.714-5.714 5.714-13.144t-5.714-13.144zM950.856 137.144v-36.572q0-8-5.144-13.144t-13.144-5.144h-548.572q-8 0-13.144 5.144t-5.142 13.144v36.572q0 8 5.142 13.144t13.144 5.144h548.572q8 0 13.144-5.144t5.144-13.144z" />
<glyph unicode="&#xe937;" glyph-name="tools" d="M986.446 779.838c37.768-91.092 19.77-199.83-54.308-273.908-81.562-81.562-204.83-94.322-300.65-40.25l-69.274-75.654 49.424-49.622 29.538 29.538c15.084 15.124 39.58 15.124 54.664 0l239.526-241.968c15.124-15.084 15.124-39.58 0-54.664l-109.326-109.326c-15.084-15.124-39.58-15.124-54.664 0l-239.526 241.968c-15.124 15.084-15.124 39.58 0 54.664l26.976 26.976-47.102 47.22-331.25-361.89c-30.206-30.206-79.16-30.206-109.326 0l-27.332 27.332c-30.208 30.206-30.208 79.158 0 109.326l377.366 316.048-250.632 251.302-79.16 0.038-91.604 147.292 73.724 73.844 150.64-92.196 0.986-77.504 253.546-254.532 73.764 61.752c-72.11 98.3-64.588 236.77 24.26 325.618 73.726 73.724 181.87 92.038 272.726 54.978l-162.414-160.17 136.698-136.698 162.73 160.486zM134.478 71.028c-15.084 15.084-39.54 15.084-54.662 0-15.124-15.124-15.124-39.58 0-54.702 15.124-15.084 39.58-15.084 54.662 0 15.122 15.162 15.122 39.62 0 54.702z" />
<glyph unicode="&#xe938;" glyph-name="bolt" d="M1024 960l-768-512 192-128-448-384 768 384-192 128z" />
<glyph unicode="&#xe948;" glyph-name="gitlab-logo-txt" horiz-adv-x="3765" d="M1923.521 941.9h-133.222l0.423-987.8h538.943v122.152h-405.721l-0.423 865.648zM2842.844 127.529c-33.304-34.684-89.317-69.376-165.012-69.376-101.432 0-142.303 49.769-142.303 114.622 0 98.021 68.121 144.775 213.458 144.775 27.25 0 71.147-3.015 93.857-7.538v-182.482zM2705.082 726.243c-107.584 0-206.257-37.991-283.255-101.231l47.087-81.251c54.5 31.669 121.115 63.345 216.485 63.345 108.999 0 157.445-55.807 157.445-149.306v-48.261c-21.196 4.523-65.094 7.546-92.344 7.546-233.141 0-351.221-81.437-351.221-251.858 0-152.313 93.857-229.227 236.16-229.227 95.859 0 187.722 43.738 219.512 114.614l24.223-96.514h93.865v505.207c0 159.859-69.642 266.934-267.958 266.934zM3402.891 53.634c-49.959 0-93.865 6.031-127.169 21.115v456.947c45.419 37.707 101.432 64.853 172.588 64.853 128.674 0 178.633-90.483 178.633-236.773 0-208.112-80.236-306.141-224.052-306.141zM3458.88 726.247c-119.064 0-183.157-80.692-183.157-80.692v127.437l-0.423 168.905h-130.187l0.423-963.67c65.094-27.146 154.41-42.222 251.302-42.222 248.275 0 367.869 158.343 367.869 431.308 0 215.658-110.537 358.933-305.826 358.933zM475.355 834.825c118.080 0 193.776-39.207 243.735-78.422l57.25 98.791c-78.031 68.168-182.986 104.806-294.931 104.806-283.092 0-481.408-171.928-481.408-518.784 0-363.456 213.947-505.216 458.699-505.216 122.628 0 227.087 28.653 295.208 57.307l-2.791 388.332v122.16h-363.329v-122.16h231.62l2.791-294.826c-30.277-15.085-83.263-27.146-154.41-27.146-196.803 0-328.512 123.327-328.512 383.056 0 263.911 136.249 392.102 336.079 392.102zM1412.258 941.9h-130.195l0.423-165.89v-573.076c0-159.859 69.642-266.934 267.958-266.934 27.396 0 54.207 2.48 80.236 7.19v116.47c-18.845-2.877-38.959-4.515-60.553-4.515-108.999 0-157.445 55.799-157.445 149.298v395.117h217.999v108.583h-217.999l-0.423 233.758zM951.705-45.901h130.195v754.050h-130.195v-754.050zM951.705 812.201h130.195v129.698h-130.195v-129.698z" />
<glyph unicode="&#xe94a;" glyph-name="python" d="M505.749 960.098c-41.437-0.197-81.010-3.726-115.832-9.891-102.573-18.126-121.196-56.059-121.196-126.023v-92.404h242.398v-30.798h-333.37c-70.447 0-132.131-42.351-151.421-122.913-22.258-92.348-23.251-149.98 0-246.405 17.231-71.77 58.374-122.911 128.823-122.911h83.34v110.775c0 80.013 69.223 150.608 151.423 150.608h242.115c67.396 0 121.194 55.497 121.194 123.195v230.854c0 65.692-55.414 115.058-121.194 126.023-41.639 6.934-84.847 10.087-126.282 9.889v0zM374.664 885.785c25.037 0 45.487-20.784 45.487-46.339 0-25.464-20.45-46.063-45.487-46.063-25.133 0-45.487 20.598-45.487 46.063 0 25.555 20.354 46.339 45.487 46.339zM783.451 700.986v-107.654c0-83.475-70.743-153.713-151.419-153.713h-242.117c-66.317 0-121.196-56.775-121.196-123.201v-230.866c0-65.694 57.117-104.349 121.196-123.19 76.731-22.566 150.3-26.657 242.115 0 61.021 17.662 121.194 53.236 121.194 123.19v92.408h-242.107v30.794h363.299c70.451 0 96.708 49.143 121.2 122.911 25.307 75.953 24.233 148.989 0 246.405-17.407 70.136-50.66 122.913-121.2 122.913l-90.965 0.004zM647.288 116.36c25.127 0 45.485-20.582 45.485-46.049 0-25.553-20.358-46.347-45.485-46.347-25.035 0-45.481 20.794-45.481 46.347-0.002 25.466 20.444 46.049 45.481 46.049v0z" />
<glyph unicode="&#xe94b;" glyph-name="php" d="M203.984 528.543c31.807 0 53.005-5.879 63.604-17.64 10.589-11.761 13.112-31.947 7.571-60.551-5.788-29.788-16.934-51.050-33.456-63.79s-41.665-19.104-75.418-19.104h-50.925l31.261 161.083h57.362zM0.001 204.39h83.721l19.857 102.328h71.711c31.642 0 57.672 3.322 78.105 9.987 20.436 6.654 39.007 17.815 55.724 33.483 14.029 12.916 25.38 27.161 34.073 42.739 8.683 15.566 14.853 32.753 18.5 51.546 8.858 45.624 2.173 81.161-20.035 106.621s-57.536 38.189-105.969 38.189h-160.992l-74.696-384.891zM423.179 691.609h83.060l-19.859-102.328h73.996c46.556 0 78.673-8.138 96.348-24.396 17.673-16.269 22.969-42.624 15.903-79.059l-34.753-179.108h-84.378l33.043 170.299c3.76 19.374 2.38 32.588-4.15 39.632-6.53 7.047-20.424 10.572-41.675 10.572h-66.385l-42.788-220.502h-83.062l74.698 384.889zM857.434 528.543c31.807 0 53.005-5.879 63.604-17.64 10.593-11.761 13.114-31.947 7.571-60.551-5.788-29.788-16.93-51.050-33.456-63.79-16.522-12.741-41.665-19.104-75.418-19.104h-50.923l31.261 161.083h57.36zM653.453 204.39h83.721l19.855 102.328h71.711c31.642 0 57.672 3.322 78.107 9.987 20.434 6.654 39.005 17.815 55.724 33.483 14.031 12.916 25.38 27.161 34.073 42.739 8.681 15.566 14.853 32.753 18.498 51.546 8.858 45.624 2.175 81.161-20.035 106.621-22.207 25.459-57.536 38.189-105.969 38.189h-160.988l-74.698-384.891z" />
<glyph unicode="&#xe94c;" glyph-name="locked" d="M928-64h-832c-17.664 0-32 14.304-32 32v512c0 17.696 14.336 32 32 32h96v128c0 176.736 143.264 320 320 320s320-143.264 320-320v-128h96c17.696 0 32-14.304 32-32v-512c0-17.696-14.304-32-32-32zM704 656c0 97.216-85.984 176-192 176s-192-78.784-192-176v-144h384v144z" />
<glyph unicode="&#xf005;" glyph-name="repo-push2" horiz-adv-x="768" d="M448 640l-192-256h128v-448h128v448h128l-192 256zM256 640h64v64h-64v-64zM320 832h-64v-64h64v64zM704 960c-32 0-608 0-640 0s-64-32-64-64 0-736 0-768 32-64 64-64 128 0 128 0v-128l128 128v128h-128v-64s-79 0-96 0-32 14-32 32 0 96 0 96h256v64h-128v576h513l-1-576h-128v-64h128s0-79 0-96-15-32-32-32-96 0-96 0v-64s96 0 128 0 64 32 64 64 0 736 0 768-32 64-64 64z" />
<glyph unicode="&#xf010;" glyph-name="file-code" horiz-adv-x="768" d="M288 576l-160-160 160-160 64 64-96 96 96 96-64 64zM416 512l96-96-96-96 64-64 160 160-160 160-64-64zM576 896h-576v-896h768v704l-192 192zM704 64h-640v768h448l192-192v-576z" />
</font>
</defs>
</svg>
